<?xml version="1.0" encoding="utf-8"?>
<!-- Generator: Adobe Illustrator 21.1.0, SVG Export Plug-In . SVG Version: 6.00 Build 0)  -->
<svg version="1.1" id="Laag_1" xmlns="http://www.w3.org/2000/svg" xmlns:xlink="http://www.w3.org/1999/xlink" x="0px" y="0px"
	 viewBox="0 0 419.5 184.3" style="enable-background:new 0 0 419.5 184.3;" xml:space="preserve">
<g>
	<path d="M41.1,125c-0.4-1.5-0.7-2.9-0.8-4.2c-0.1-1.3-0.2-2.5-0.2-3.5c0-2.1,0.3-6.2,1-12.2c0.7-6,2.6-14.4,5.8-25
		c1.3-4.6,2.5-9,3.8-13.1c1.3-4.1,2.4-7.7,3.4-10.9c1-3.2,1.8-5.7,2.5-7.7c0.7-2,1.1-3.3,1.3-3.8c0.1-0.2,0.3-0.5,0.5-0.8
		c0.2-0.2,0.4-0.4,0.7-0.6c0.3-0.2,0.7-0.2,1.2-0.2c1.7,0,2.9,0.4,3.5,1.1c0.7,0.7,1,1.4,1,1.9c0,0.6-0.3,1.9-0.9,3.9
		c0,0.2-0.3,1.5-1,3.8c-0.7,2.3-1.5,4.9-2.4,7.9c-0.9,2.9-1.8,5.8-2.8,8.7s-1.6,4.9-2,6.1c-2.1,8.2-3.9,15.6-5.4,22.2
		c-1.5,6.6-2.4,11.7-2.6,15.3c0-0.1,0,0.2-0.1,0.8c-0.1,0.6-0.1,1.5-0.1,2.5c0,1.1,0.1,2.2,0.2,3.5c0.1,1.3,0.3,2.6,0.6,3.7
		c0.2,0.5,0.1,0.8-0.5,0.8c0.8,0,1.8-0.6,3-1.8c1.2-1.2,2.2-2.2,3.2-3.1l0.3-0.3l0.5-0.5h0.3l0.3-0.5l0.5-0.5l0.2-0.3l0.3,0.2
		l0.2-0.3l0.2-0.3h0.5v-0.3l0.3-0.3c0.1,0,0.2,0,0.2-0.1c0.1-0.1,0.1-0.1,0.2-0.1h0.2l-0.2-0.2h0.2c0.2,0,0.4,0.1,0.7,0.2
		c0.3,0.2,0.4,0.3,0.4,0.6c0,0.1-0.1,0.2-0.2,0.2c-0.1,0-0.2,0.1-0.3,0.2l0.2,0.3h-0.3l0.2,0.3c0,0.1-0.1,0.1-0.2,0.1
		c-0.1-0.1-0.2,0-0.2,0.1v0.3v0.2h-0.2l0.2,0.2l-0.5,0.5l-0.2,0.3l-0.2,0.5h-0.2l0.2,0.2l-0.5,0.8c-0.2,0.3-0.5,1-0.9,2
		c-0.4,1-1,2.1-1.7,3.2c-0.7,1.1-1.6,2.1-2.7,3c-1.1,0.9-2.4,1.3-4,1.3c-1.3,0-2.3-0.3-3.1-0.8c-0.8-0.5-1.4-1.1-2-1.8
		c-0.5-0.7-0.9-1.4-1.2-2C41.4,126,41.2,125.4,41.1,125z"/>
	<path d="M86.3,103.7c0.2-0.1,0.4-0.1,0.7,0.1c0.3,0.2,0.4,0.3,0.4,0.6c0,0.1-0.1,0.2-0.2,0.2c-0.1,0.1-0.2,0.2-0.3,0.4v0.3
		c0,0.1,0.1,0.2,0.2,0.2c0,0.1-0.1,0.2-0.2,0.2c-0.1,0-0.2,0.1-0.2,0.2c-0.1,0-0.1,0.1,0,0.2c0.1,0.1,0.1,0.2,0,0.3
		c0,0.1-0.1,0.2-0.2,0.2c-0.1,0-0.2,0.1-0.2,0.2c-0.1,0.2-0.1,0.4,0,0.5c0.1,0.1,0.1,0.2,0,0.3l-0.2,0.2v0.3l-0.3,0.9
		c0,0.1-0.1,0.2-0.2,0.2c-0.1,0-0.2,0.1-0.2,0.2c0,0.1,0.1,0.2,0.2,0.3l-0.2,0.5l-0.2,0.6v0.2c-0.1,0.1-0.3,0.2-0.5,0.2
		c0,0.1,0.1,0.2,0.2,0.2c0.1,0.1,0.2,0.1,0.2,0.2l-0.2,0.5l-0.3,1.1c-0.6,2.1-1.4,4.5-2.4,7.1c-0.3,0.6-0.6,1.3-0.9,2
		c-0.3,0.7-0.7,1.4-1.3,2.3c-0.3,0.4-0.6,0.9-0.9,1.3c-0.3,0.5-1,0.9-2.1,1.3c-0.3,0.3-0.6,0.5-0.8,0.6v0.2c-0.5,0.2-1.2,0.2-2,0
		c0-0.1,0.1-0.1,0.2-0.1c0.1,0.1,0.1,0-0.2-0.1h-0.3c-0.1-0.2-0.2-0.4-0.2-0.5c-0.1-0.1-0.1-0.3-0.1-0.5c-0.7-0.4-1.3-0.9-1.6-1.6
		l-0.6-1.9c-0.2-0.5-0.3-1.1-0.3-1.7c0-0.6,0-1.2,0-1.7c-0.7,1.2-1.6,2.5-2.5,4.2c-0.9,1.6-2.3,2.8-4.1,3.5
		c-0.6,0.6-1.5,0.9-2.7,0.9h0.5l-0.2-0.2h0.3c0.2,0,0.4-0.1,0.6-0.3l0.2,0.2l0.5-0.3c0.1,0,0.2,0,0.2-0.1c0-0.1,0.1-0.1,0.2-0.1
		h-0.6l-0.2,0.2l0.2-0.2H63l0.2,0.2l-0.3,0.2c0-0.1-0.2-0.2-0.5-0.2H62v0.2h-0.3h-0.2l-0.2,0.2l0.2,0.2c0,0.1,0.2,0.2,0.5,0.2h-0.3
		c-0.4-0.2-0.8-0.4-1.2-0.7c-0.4-0.3-0.8-0.5-1.2-0.7v-0.2h-0.2c-1-0.6-1.8-1.4-2.3-2.4c-0.5-1-0.8-1.9-0.9-2.8
		c-0.6-2.7-0.9-5.1-0.8-7.1c0-4.5,0.5-8.8,1.4-12.9c0.9-4.1,2.3-7.9,4-11.3c1.7-3.4,3.5-6.4,5.2-8.8c1.7-2.5,3.4-4.4,4.9-5.8
		c1.5-1.4,2.6-2.2,3.2-2.4c0.4-0.2,0.8-0.3,1.3-0.3c0.8,0,1.6,0.7,2.4,2c0.6,1.3,0.9,2.2,0.9,2.8c0,0.6-0.2,1.1-0.6,1.4
		c-0.5,0.5-1.2,1.1-2,1.8c-0.8,0.7-1.7,1.7-2.8,3.1c-1.1,1.4-2.3,3.2-3.6,5.4c-1.3,2.3-2.7,5.3-4.2,9.1c-0.5,1.3-1,2.7-1.5,4.4
		c-0.5,1.7-0.9,3.5-1.3,5.4c-0.4,1.9-0.6,3.8-0.8,5.8c-0.2,1.9-0.1,3.9,0.1,5.8c0.1,1.2,0.3,1.8,0.6,2c0.3,0.2,0.5,0.3,0.5,0.2
		c0.5-0.3,1.1-0.9,1.8-1.7c0.7-0.8,1.3-1.7,1.8-2.5c1.2-1.8,2.2-3.6,3.2-5.4c0.9-1.8,1.8-3.5,2.7-5v-0.2c0.1-0.6,0.2-1.3,0.3-1.9
		c0.1-0.6,0.2-1.3,0.3-1.9c0.6-2.9,1.3-5.7,2-8.4c0.7-2.6,1.4-5,2.1-7c0.7-2,1.3-3.7,1.9-5c0.6-1.3,1-2.1,1.3-2.4
		c0.1-0.3,0.4-0.5,0.8-0.6C81.6,80,82,80,82.4,80c0.4,0.1,1,0.3,1.9,0.9c2,1.5,2.8,2.5,2.5,3.2c-0.2,0.5-0.4,1.2-0.7,2
		c-0.3,0.8-0.6,1.8-1.1,3.2c-0.5,1.3-1,2.9-1.7,4.9c-0.6,1.9-1.3,4.4-2,7.3c-0.5,2.2-1.2,4.8-2,7.7c-0.8,2.9-1.5,6-2,9.1
		c0,0.4,0,0.8-0.1,1.2c-0.1,0.4-0.1,0.8-0.1,1.2c0.8-1.3,1.6-2.6,2.3-3.9c0.7-1.4,1.3-2.6,2-3.8v-0.2l0.3-0.5l0.2-0.5v-0.2l0.3-0.6
		c0-0.1,0-0.2,0.1-0.2c0.1-0.1,0.1-0.1,0.1-0.2l0.2-0.2l0.2-0.3h0.2l0.2-0.5h-0.2c0.2-0.4,0.4-0.8,0.6-1.3c0.2-0.4,0.4-0.8,0.6-1.1
		v0.2h-0.2v0.2v0.2l0.3-0.2c0.1-0.1,0.1-0.2,0.1-0.2c-0.1-0.1,0-0.1,0.1-0.2l-0.2-0.2l0.2-0.2c0.1-0.2,0.2-0.3,0.2-0.4
		c0.1-0.1,0,0-0.1,0.1l0.6-0.6v-0.3l0.3-0.3l0.2-0.5c0.1-0.2,0.3-0.4,0.5-0.6c0.1-0.1,0.2-0.2,0.3-0.2h-0.2L86.3,103.7z"/>
	<path d="M107.9,111.2c0.2,0,0.4,0.1,0.6,0.2c0.2,0.1,0.3,0.3,0.3,0.5c0,0.1-0.1,0.2-0.2,0.2c-0.1,0.1-0.2,0.2-0.3,0.4
		c0,0.1,0,0.2,0.1,0.2c0.1,0.1,0.1,0.1,0.1,0.2l-0.3,0.2v0.3c0,0.1-0.1,0.2-0.2,0.2c-0.2,0.1-0.2,0.2-0.2,0.4c0,0.1,0,0.2,0.1,0.2
		c0.1,0.1,0.1,0.1,0.1,0.2h-0.3l0.2,0.3l-0.3,0.8c0,0.1-0.1,0.2-0.2,0.2h-0.2c0,0.1,0,0.2,0.1,0.2c0.1,0.1,0.1,0.1,0.1,0.2l-0.3,0.3
		l-0.2,0.6c0,0.1-0.1,0.2-0.2,0.2h-0.2c0,0.1,0.1,0.2,0.2,0.3l-0.5,1.4c-0.4,0.8-0.8,1.7-1.2,2.7c-0.4,0.9-0.8,2-1.3,3.2
		c-0.2,0.3-0.4,0.8-0.6,1.4c-0.2,0.6-0.5,1.3-0.9,2c-0.4,0.7-1,1.3-1.7,1.7c-0.7,0.5-1.6,0.7-2.8,0.7c-1.6,0-2.7-0.5-3.4-1.5
		c-0.7-1-1.1-2.1-1.3-3.4c-0.2-1.3-0.3-2.5-0.2-3.6c0.1-1.2,0.2-1.9,0.2-2.2c0-2.5,0.1-5.1,0.4-7.7c0.3-2.6,0.6-5.1,1.1-7.6
		c0.5-2.4,1-4.7,1.5-6.7c0.5-2,1-3.8,1.6-5.1c-1.2-0.5-2.5-1.5-3.9-2.8c-1.4,4.1-2.5,7.5-3.3,10.3c-0.8,2.8-1.8,5.8-3,8.9l-0.2,0.2
		l-0.2,0.2h0.2l-0.2,0.2v0.2v0.2l-0.2,0.5h0.2l-0.2,0.2l-0.2,0.9c-0.2,0.6-0.4,1.2-0.6,1.7v0.3l-0.2,0.2L86,114h-0.2l-0.3,0.6
		l-0.3,0.6h0.2l-0.3,0.3l-0.2,0.2c-0.1,0.2-0.2,0.4-0.3,0.7c-0.1,0.3-0.2,0.5-0.3,0.7h-0.2h0.2v-0.3l-0.3-0.5l-0.2,0.2l0.2-0.2
		c0-0.1,0-0.2-0.1-0.2c-0.1,0-0.1-0.1-0.1-0.2l0.5-0.6l-0.2-0.2c0-0.2,0-0.3-0.1-0.4c-0.1-0.1,0.2-0.7,0.7-2l0.2,0.2
		c0-0.1,0-0.1,0.1-0.1c0.1,0.1,0.1,0,0.1-0.1h-0.2v-0.3l-0.3,0.8h-0.3v0.5l-0.3,0.6l-0.5,0.8l-0.3,0.6l-0.2,0.3l-0.3,0.6l-0.3,0.5
		c-0.1,0.2-0.2,0.4-0.3,0.5l-0.2,0.2h0.2l-0.2,0.2l-0.2,0.2c-0.4,0-0.6-0.2-0.6-0.5l0.3-0.6l-0.2-0.3l0.3-0.2l-0.2-0.3l0.3-0.3v-0.6
		l0.2-0.8l0.2-0.5l0.2-0.6l0.3-0.3l-0.2-0.2l0.3-1.1c0.5-1.7,1.1-3.7,1.7-6.1c0.6-2.4,1.3-4.8,1.9-7.3c0.6-2.5,1.2-5,1.7-7.5
		c0.5-2.5,0.9-4.7,1.2-6.7c-0.9-1.8-1.6-3.5-1.9-5.1c-0.3-1.6-0.5-3-0.5-4.2c0-1.3,0-2.1,0-2.5c0-0.4,0.7-0.6,2-0.6
		c2.4,0,4.2,0.1,5.3,0.3c1.1,0.2,1.8,0.6,2.2,1.1c0.4,0.5,0.5,1.2,0.5,2c-0.1,0.8,0,1.9,0.1,3.2c0.1,1.3,0.4,2.8,1,4.5
		c0.6,1.7,1.7,3.7,3.2,5.9c0.7,0.2,1.4,0.6,1.9,1c0.5,0.5,1,0.9,1.3,1.4c0.4,0.5,0.8,1,1.2,1.7c0,0.3-0.1,0.7-0.3,1.1v0.2v0.2v-0.2
		v0.2c0,0.1,0.1,0.2,0.2,0.2l-0.3,0.2l0.2-0.2c0-0.1-0.1-0.2-0.2-0.2c0,0.8-0.4,2.3-1.3,4.3c-0.8,2-1.6,4.9-2.2,8.8
		c-0.3,2.1-0.8,4.7-1.6,7.6c-0.7,3-1.1,5.9-1.1,8.8c0.6-0.8,1.2-1.7,1.8-2.6c0.6-0.9,1.1-1.8,1.7-2.6l0.2-0.3l0.2-0.3v-0.2l0.2-0.2
		l0.5-0.8l0.5-0.9h-0.2l0.3-0.3l0.3-0.3c0.2-0.3,0.4-0.7,0.6-1.1c0.2-0.4,0.3-0.7,0.6-0.9v0.2l-0.2,0.3l0.2,0.5l0.3-0.6h0.3
		l-0.2-0.2l-0.3-0.3l0.2-0.2c0.1-0.2,0.2-0.3,0.3-0.3l-0.2,0.2h0.3v-0.3v0.2l0.2-0.2v0.5c-0.1,0-0.1,0-0.1-0.1
		c0.1-0.1,0-0.1-0.1-0.1c-0.1,0-0.2,0.1-0.3,0.2c0,0.1,0.1,0.2,0.2,0.2V113c0.1,0,0.2,0.1,0.2,0.2l0.3-0.6l0.5-0.6l0.5-0.5
		c0.1-0.1,0.2-0.2,0.3-0.2h-0.2l0.2-0.2H107.9z M84.3,114.8h0.2h0.2H84.3z M85.7,112.9h-0.2l0.2,0.3V113V112.9z M85.8,111.6
		l-0.2-0.2v0.2H85.8z M88.1,106.9l0.2-0.3L88.1,106.9z"/>
	<path d="M106.5,123.9c-0.2-1-0.3-2-0.4-2.8c-0.1-0.8-0.1-1.6-0.1-2.4c-0.1-3.2,0.1-6.3,0.6-9.3c0.5-3,1.1-6,1.6-8.8
		c1.5-8.1,3-14,4.5-17.7c1.5-3.7,2.7-5.6,3.5-5.6c0.7,0,1.4,0.2,2,0.6c0.6,0.4,1.1,0.9,1.6,1.3s1,1.1,1.5,2c0,0.8-0.5,2.5-1.5,4.9
		c-1,2.4-2.2,6.5-3.5,12.3c-0.3,1.5-0.8,3.2-1.3,5.1c-0.6,1.9-1.2,4-1.7,6.1c-0.6,2.1-1.1,4.2-1.4,6.4c-0.4,2.2-0.6,4.1-0.6,5.9
		c0,0.2,0,0.4,0.1,0.6c0.1,0.2,0.1,0.4,0.1,0.6c0.3-0.3,1.1-0.9,2.3-1.7c1.2-0.8,2-1.6,2.4-2.4l1.1-1.1l0.8-0.5l0.3-0.6l0.3-0.3
		l0.2-0.2l0.6-0.6h-0.2c0.5-0.5,1.1-1.2,1.7-2l-0.2,0.3l-0.2,0.3l0.3-0.2l0.3-0.5v-0.3c0-0.1,0.1-0.2,0.2-0.3h0.2l-0.2,0.2l0.2-0.2
		l0.2-0.2v0.2l0.2-0.3v0.2l0.5-0.5c0.1-0.2,0.2-0.3,0.3-0.4c0.1-0.1,0.2-0.1,0.3-0.2c0.1-0.1,0.2-0.2,0.3-0.2h-0.2l0.2-0.2h0.2
		c0.2,0,0.4,0.1,0.6,0.2c0.2,0.1,0.3,0.3,0.3,0.5c0,0.1-0.1,0.2-0.4,0.4c-0.3,0.2-0.4,0.3-0.4,0.6c0,0.1,0.1,0.2,0.2,0.3
		c0-0.1-0.2,0-0.5,0.3v0.3c0-0.2,0-0.2,0,0.2c0,0.3-0.2,0.7-0.6,1.1l-0.2,0.5l-0.9,0.9l-0.3,0.8l-0.5,0.8c0,0.1-0.1,0.1-0.2,0.1
		c-0.1-0.1-0.2,0-0.2,0.1v0.3l-0.9,1.4c-0.3,0.5-0.7,1.2-1.3,2c-0.5,0.8-1.2,1.6-1.9,2.4c-0.7,0.8-1.6,1.5-2.4,2.1
		c-0.9,0.6-1.9,1-3.1,1.1c-0.7,0-1.5-0.2-2.3-0.7c-0.8-0.5-1.3-1-1.5-1.5L106.5,123.9z M116.7,68.4l0.2-0.8c0-0.1,0-0.2,0.1-0.2
		c0.1-0.1,0.1-0.1,0.1-0.2v-0.3c0-0.1,0-0.2,0.1-0.3c0.1-0.1,0.1-0.3,0.1-0.5l0.3,0.3v0.3v0.6h-0.3l0.2,0.2c0,0.2,0.1,0.3,0.2,0.3
		L118,68l-0.3-0.8l-0.2,0.2l0.3-0.3l0.2-0.2v-0.3c0-0.3,0.1-0.5,0.2-0.6l-0.2-0.2h-0.3c0,0.1-0.1,0.2-0.2,0.2v0.2l0.2-0.5l-0.2-0.6
		l0.3-1.7c0.1-0.1,0.2-0.2,0.3-0.2v-0.2l0.2-0.3l0.3-0.8c0-0.9,0.3-1.9,0.8-2.8c0.5-0.9,1.1-1.7,1.7-2.4c0.6-0.7,1.3-1.3,1.9-1.7
		c0.6-0.4,1-0.6,1.3-0.6c0.8,0,1.4,0.4,1.8,1.2c0.4,0.8,0.7,1.8,0.9,3.1v0.2l0.3,0.5l-0.3-0.3v0.8l0.5,0.3l-0.2,1.4l0.2,0.2
		l-0.2-0.2v0.2c0.1,0,0.2,0.1,0.2,0.2l-0.2,0.8v0.6l-0.2,0.9c-0.2,0.4-0.4,0.9-0.6,1.3s-0.3,0.8-0.4,1v-0.3v-0.3l-0.2-0.5l-0.5,1.4
		l0.3-0.2v0.3V67v0.2l-0.2-0.2v0.2l0.2,0.2v-0.2v0.3h-0.2c0.1,0,0.2,0.1,0.2,0.2l-0.2-0.2l-0.3-0.2c-0.1,0.1-0.2,0.2-0.2,0.2
		c0,0.1-0.1,0.1-0.2,0.2l0.3,0.3l0.2,0.3l-0.2-0.2c0.1,0.1,0.2,0.3,0.2,0.5l-0.5,0.6v0.2l-0.3,0.9c-0.1,0.2-0.2,0.5-0.3,0.8
		c-0.1,0.3-0.2,0.5-0.3,0.6l-0.2-0.2v0.2h-0.2c0.1,0,0.2,0.1,0.2,0.3c-0.2,0.2-0.3,0.4-0.3,0.6c0,0.2-0.2,0.4-0.5,0.6h-0.2l-0.6,0.8
		c-0.3,0.6-0.8,1-1.4,1.1h-0.2c-0.4,0.2-0.7,0.3-0.9,0.3c-0.4,0-0.8-0.2-1.1-0.5L119,75l-0.2-0.2c-0.1,0-0.2,0.1-0.2,0.2
		c-0.2-0.5-0.4-0.8-0.6-0.9c-0.2-0.1-0.4-0.3-0.5-0.5h0.2l-0.2-0.3h0.3l-0.2-0.5l-0.2-0.2l-0.2,0.3c-0.2-0.4-0.3-0.7-0.3-0.8
		l-0.2-0.8c0-0.1,0-0.2-0.1-0.2c-0.1-0.1-0.1-0.2-0.1-0.4c0-0.2,0-0.4,0.1-0.5c0.1-0.1,0.1-0.3,0.1-0.5l-0.2-1.1l0.8-0.2l0.2-0.5
		h-0.3l-0.5-0.2v0.5H116.7z M117.5,70.6l0.2-0.3l-0.3,0.2v-0.2c0.2,0,0.3-0.1,0.3-0.3h-0.3v-0.2l-0.2-0.2l-0.3,0.3v0.2l0.3,0.3
		l-0.3,0.2l0.2,0.2c0,0.2,0.1,0.3,0.2,0.3l0.3-0.3V70.6z M118.3,64.3v-0.5l-0.5-0.2l0.2,0.9L118.3,64.3z M117.8,72.8l0.2,0.6
		l0.5-0.3l-0.2-0.2h0.2l-0.2-0.3l-0.2,0.2H117.8z M118.5,73.3v0.3l0.3,0.2v-0.3L118.5,73.3z M121.8,113l-0.3,0.3l0.2,0.2v-0.2h0.2
		v-0.2V113z M123.2,71.7l0.2,0.2v-0.2l0.2-0.2l-0.2-0.2l-0.2,0.2V71.7z M124.6,70.6h0.2l-0.2-0.2V70.6z M124.9,70.2
		c-0.1,0-0.2-0.1-0.2-0.2L124.9,70.2z M126.5,63.7h0.3l-0.3-0.3V63.7z M126.7,63.1l0.3,0.2l-0.3-0.6V63.1z M126.8,61.2L127,61h-0.2
		V61.2z M127.2,62.4c0.1,0,0.2-0.1,0.2-0.2C127.2,62.3,127.2,62.3,127.2,62.4C127.3,62.4,127.3,62.4,127.2,62.4z M127.5,60.5
		l-0.2,0.2C127.3,60.6,127.4,60.5,127.5,60.5z"/>
	<path d="M160.7,80.7c0.2,0,0.4,0.1,0.5,0.3c0.1,0.2,0.2,0.4,0.2,0.6c0,0.2-0.1,0.3-0.2,0.3s-0.3,0.1-0.6,0.2
		c-0.1,0.1-0.1,0.2-0.1,0.3c0.1,0.1,0,0.2-0.1,0.2h-0.2c-0.2,0-0.3,0.1-0.3,0.2s-0.1,0.2-0.3,0.2c-0.2,0-0.3,0.1-0.3,0.2
		c0,0.2-0.1,0.2-0.2,0.2H159l-0.8,0.8l-0.3-0.2l-0.5,0.5l-0.5,0.5l-0.3-0.2l-0.2,0.2c0,0.1,0.1,0.2,0.2,0.3l-1.1,0.6
		c-2.4,1.9-5.2,4.4-8.2,7.4c-3,3-5.8,6.3-8.4,9.6c0.8,2,1.8,4.1,3,6.2c1.2,2.2,1.7,4.2,1.7,6.1c0,1.1-0.3,2.3-0.8,3.6
		c-0.5,1.4-1.3,2.7-2.4,3.9c-1.1,1.3-2.3,2.3-3.7,3.2c-1.4,0.8-3.1,1.3-5,1.3c-1.5,0-2.7-0.3-3.8-0.9c-1.1-0.6-1.9-1.3-2.5-2.2
		c-0.6-0.9-1.1-1.8-1.4-2.8s-0.5-1.7-0.5-2.4c0-0.3,0-1,0.1-2c0.1-1,0.3-2.3,0.8-3.9c0.5-1.6,1.2-3.4,2.3-5.4c1-2,2.6-4.3,4.6-6.7
		c-0.2-0.5-0.4-1-0.5-1.3c-0.1-0.4-0.3-0.8-0.5-1.3c-0.6,1.3-1.3,2.5-1.9,3.7c-0.6,1.2-1.3,2.4-2,3.5l-1.3,3.3
		c-0.4,0.8-0.8,1.7-1.2,2.6c-0.4,0.9-0.8,1.8-1.2,2.8l-0.3,0.2c0,0.1-0.1,0.2-0.2,0.3l-0.2,0.3v0.3v0.2l-0.3,0.5l-0.2,0.3l-0.5,1.3
		l-1.1,2.8l-0.3,0.3v0.3v0.3l-0.6,0.8l-0.2,0.8l-0.3,0.3v0.2l-0.5,0.6c-0.2,0.4-0.4,0.8-0.6,1.3c-0.2,0.4-0.3,0.8-0.4,1.1v-0.3
		l0.2-0.2l-0.3-0.6v0.2l-0.2-0.2l0.2-0.2c0-0.1,0-0.2-0.1-0.2c-0.1-0.1-0.1-0.1-0.1-0.2l0.6-1.1v-0.2c0-0.3,0.2-0.9,0.5-1.8
		c0.3-0.9,0.6-1.5,0.8-1.8v0.2c0-0.1,0-0.1,0.1-0.1c0.1,0.1,0.1,0,0.1-0.1H119l0.2-0.3c0-0.2,0.1-0.5,0.3-0.9l-0.2,0.2l-0.6,1.3
		l-0.6,0.8v0.6l-0.3,0.5l-0.5,0.9l-0.3,0.8c-0.1,0.2-0.2,0.4-0.2,0.5c-0.1,0.1-0.1,0.3-0.1,0.5c-0.1,0.2-0.2,0.4-0.2,0.5l0.2-0.2
		v0.3c-0.2,0.4-0.4,0.6-0.6,0.6c-0.2,0-0.3-0.1-0.3-0.3c0-0.1,0-0.3,0.1-0.7c0.1-0.4,0.1-0.7,0.1-1c0-0.1,0-0.2-0.1-0.2
		c-0.1-0.1-0.1-0.1-0.1-0.2l0.2-0.2l0.2-0.3l0.3-0.9l0.2-0.9l0.3-1.3l0.3-0.2v-0.5l0.3-0.9l0.5-0.3l-0.2-0.3l0.6-1.6
		c1.3-3.2,2.8-6.9,4.7-11.2c1.9-4.3,3.7-8.7,5.5-13.2c-0.2-1.2-0.4-2.3-0.6-3.3c-0.2-1-0.3-2.2-0.3-3.3l0.2-0.5
		c0-0.3-0.1-0.5-0.2-0.5h0.2v-0.3c-0.1-0.1-0.1-0.2-0.1-0.3c0.1-0.1,0-0.2-0.1-0.2v-0.8V82l0.2-1.9v-0.3c0-0.5,0.1-1.1,0.2-1.7
		c0.2-0.6,0.3-1.1,0.6-1.7v-0.2l0.2-0.6v0.2l0.2-0.3h-0.2v-0.3h0.3l0.9-1.9l0.3-0.6h-0.2l0.5-0.5l0.3-0.5h-0.2
		c0.3-0.4,0.7-0.8,1.1-1.3c0.4-0.4,0.7-0.8,0.9-1.1v0.2l0.5-0.2v-0.5l0.3-0.3v0.2l0.2-0.2v0.2l0.2-0.3v0.2v-0.2l0.3-0.3l0.2-0.2
		c-0.1-0.1-0.2-0.3-0.2-0.6c0-0.5,0.6-0.9,1.7-1.3h0.2c1.8,0,3,0.6,3.5,1.7c0.6,1.2,0.9,2.3,0.9,3.5c0,1.7-0.5,4.3-1.5,7.9
		c-1,3.6-2.7,7.6-5,12.1c0.3,0.8,0.6,1.7,0.9,2.4c0.3,0.8,0.6,1.6,0.9,2.4c2.5-2.5,5.3-4.9,8.3-7.1c3-2.2,5.8-3.9,8.4-5.2l0.6-0.3
		l1.1-0.5l0.3,0.2l0.8-0.3l0.5-0.5h0.6l0.5-0.5l0.3,0.2l0.6-0.3l0.8-0.3l0.2-0.3l0.6-0.2c0.2,0,0.3,0,0.4-0.1
		c0.1-0.1,0.1-0.1,0.2-0.1h0.3L160.7,80.7z M118.6,121.4c0.1-0.1,0.2-0.3,0.2-0.5L118.6,121.4z M118.6,121.4
		c0.1-0.1,0.2-0.3,0.2-0.5L118.6,121.4z M119.3,120c0.1,0,0.2-0.1,0.2-0.2L119.3,120z M119.4,119.8l-0.2,0.2
		C119.4,120,119.4,119.9,119.4,119.8z M119.6,117.9v0.3l0.2-0.3H119.6z M119.6,118.2c0-0.1,0.1-0.2,0.2-0.3h-0.2V118.2z M119.9,120
		l-0.3,0.2l0.2,0.3l0.2-0.3V120z M119.9,120l-0.3,0.2l0.2,0.3l0.2-0.3V120z M119.9,126.8h0.2v0.2L119.9,126.8z M120.7,116.8l0.2,0.2
		C120.8,116.9,120.8,116.8,120.7,116.8z M120.8,117c0-0.1-0.1-0.2-0.2-0.2L120.8,117z M123.8,110.8l0.3-0.5v-0.2
		c-0.1,0.1-0.2,0.2-0.2,0.2c0,0.1-0.1,0.1-0.2,0.2V110.8z M124.2,110.2c-0.1,0.1-0.2,0.2-0.2,0.2c0,0.1-0.1,0.1-0.2,0.2v0.2l0.3-0.5
		V110.2z M129,76.6h-0.2l-0.2,0.5h0.2L129,76.6z M128.9,76.9l-0.2,0.2h0.2l0.2-0.5h-0.2V76.9z M131.6,119.7
		C131.5,119.7,131.5,119.7,131.6,119.7c0.2,0.1,0.5,0.2,0.8,0.2c0.6,0,1.4-0.3,2.4-0.8c0.9-0.5,1.5-1.7,1.6-3.5
		c0-0.5-0.2-1.2-0.5-2.1c-0.3-0.9-0.7-2-1.3-3.4c-1.2,2.1-2,3.9-2.4,5.4c-0.5,1.5-0.7,2.6-0.7,3.2
		C131.4,119.1,131.5,119.5,131.6,119.7z M132.5,76.5c-0.3,1.3-0.5,2.5-0.5,3.8c0,0.5,0,1,0,1.5c0,0.5,0.1,1,0.2,1.5
		c1-2.8,1.8-5.4,2.2-7.6c0.4-2.3,0.7-3.9,0.9-5h-0.6h0.5l0.2-0.2c0-0.4,0-0.7-0.1-0.7c-0.1-0.1-0.1-0.1-0.1-0.2
		c-0.2,0.4-0.4,0.6-0.5,0.6c-0.1,0-0.2,0.1-0.2,0.2l-0.2,0.8l-0.3,0.2l-0.3,1.3c0,0.1-0.1,0.2-0.2,0.2h-0.2l-0.3,0.9l-0.2,0.8h-0.2
		c-0.1,0-0.2,0.1-0.2,0.2l0.2,0.3L132.5,76.5z M132.5,70l0.2-0.2h-0.2V70z M132.5,69.8V70l0.2-0.2H132.5z M143.4,109.6h0.2l-0.2,0.5
		l-0.3-0.2l0.2-0.3H143.4z M144.8,106.9l0.2,0.2c-0.1,0.1-0.1,0.2-0.1,0.2c0.1,0.1,0,0.1-0.1,0.2l-0.3,0.2v-0.2l0.2-0.2v-0.6
		L144.8,106.9z"/>
	<path d="M185,80.7c0.2,0,0.4,0.1,0.5,0.3c0.1,0.2,0.2,0.4,0.2,0.6c0,0.2-0.1,0.3-0.2,0.3s-0.3,0.1-0.6,0.2
		c-0.1,0.1-0.1,0.2-0.1,0.3c0.1,0.1,0,0.2-0.1,0.2h-0.2c-0.2,0-0.3,0.1-0.3,0.2s-0.1,0.2-0.3,0.2c-0.2,0-0.3,0.1-0.3,0.2
		c0,0.2-0.1,0.2-0.2,0.2h-0.2l-0.8,0.8l-0.3-0.2l-0.5,0.5l-0.5,0.5l-0.3-0.2l-0.2,0.2c0,0.1,0.1,0.2,0.2,0.3l-1.1,0.6
		c-2.4,1.9-5.2,4.4-8.2,7.4c-3,3-5.8,6.3-8.4,9.6c0.8,2,1.8,4.1,3,6.2c1.2,2.2,1.7,4.2,1.7,6.1c0,1.1-0.3,2.3-0.8,3.6
		c-0.5,1.4-1.3,2.7-2.4,3.9c-1.1,1.3-2.3,2.3-3.7,3.2c-1.4,0.8-3.1,1.3-5,1.3c-1.5,0-2.7-0.3-3.8-0.9c-1.1-0.6-1.9-1.3-2.5-2.2
		c-0.6-0.9-1.1-1.8-1.4-2.8s-0.5-1.7-0.5-2.4c0-0.3,0-1,0.1-2c0.1-1,0.3-2.3,0.8-3.9c0.5-1.6,1.2-3.4,2.3-5.4c1-2,2.6-4.3,4.6-6.7
		c-0.2-0.5-0.4-1-0.5-1.3c-0.1-0.4-0.3-0.8-0.5-1.3c-0.6,1.3-1.3,2.5-1.9,3.7c-0.6,1.2-1.3,2.4-2,3.5l-1.3,3.3
		c-0.4,0.8-0.8,1.7-1.2,2.6c-0.4,0.9-0.8,1.8-1.2,2.8l-0.3,0.2c0,0.1-0.1,0.2-0.2,0.3l-0.2,0.3v0.3v0.2l-0.3,0.5l-0.2,0.3l-0.5,1.3
		l-1.1,2.8l-0.3,0.3v0.3v0.3l-0.6,0.8l-0.2,0.8l-0.3,0.3v0.2l-0.5,0.6c-0.2,0.4-0.4,0.8-0.6,1.3c-0.2,0.4-0.3,0.8-0.4,1.1v-0.3
		l0.2-0.2l-0.3-0.6v0.2l-0.2-0.2l0.2-0.2c0-0.1,0-0.2-0.1-0.2c-0.1-0.1-0.1-0.1-0.1-0.2l0.6-1.1v-0.2c0-0.3,0.2-0.9,0.5-1.8
		c0.3-0.9,0.6-1.5,0.8-1.8v0.2c0-0.1,0-0.1,0.1-0.1c0.1,0.1,0.1,0,0.1-0.1h-0.2l0.2-0.3c0-0.2,0.1-0.5,0.3-0.9l-0.2,0.2l-0.6,1.3
		l-0.6,0.8v0.6L142,122l-0.5,0.9l-0.3,0.8c-0.1,0.2-0.2,0.4-0.2,0.5c-0.1,0.1-0.1,0.3-0.1,0.5c-0.1,0.2-0.2,0.4-0.2,0.5l0.2-0.2v0.3
		c-0.2,0.4-0.4,0.6-0.6,0.6c-0.2,0-0.3-0.1-0.3-0.3c0-0.1,0-0.3,0.1-0.7c0.1-0.4,0.1-0.7,0.1-1c0-0.1,0-0.2-0.1-0.2
		c-0.1-0.1-0.1-0.1-0.1-0.2l0.2-0.2l0.2-0.3l0.3-0.9l0.2-0.9l0.3-1.3l0.3-0.2v-0.5l0.3-0.9l0.5-0.3l-0.2-0.3l0.6-1.6
		c1.3-3.2,2.8-6.9,4.7-11.2c1.9-4.3,3.7-8.7,5.5-13.2c-0.2-1.2-0.4-2.3-0.6-3.3c-0.2-1-0.3-2.2-0.3-3.3l0.2-0.5
		c0-0.3-0.1-0.5-0.2-0.5h0.2v-0.3c-0.1-0.1-0.1-0.2-0.1-0.3c0.1-0.1,0-0.2-0.1-0.2v-0.8V82l0.2-1.9v-0.3c0-0.5,0.1-1.1,0.2-1.7
		c0.2-0.6,0.3-1.1,0.6-1.7v-0.2l0.2-0.6v0.2l0.2-0.3H153v-0.3h0.3l0.9-1.9l0.3-0.6h-0.2l0.5-0.5l0.3-0.5h-0.2
		c0.3-0.4,0.7-0.8,1.1-1.3c0.4-0.4,0.7-0.8,0.9-1.1v0.2l0.5-0.2v-0.5l0.3-0.3v0.2l0.2-0.2v0.2l0.2-0.3v0.2v-0.2l0.3-0.3l0.2-0.2
		c-0.1-0.1-0.2-0.3-0.2-0.6c0-0.5,0.6-0.9,1.7-1.3h0.2c1.8,0,3,0.6,3.5,1.7c0.6,1.2,0.9,2.3,0.9,3.5c0,1.7-0.5,4.3-1.5,7.9
		c-1,3.6-2.7,7.6-5,12.1c0.3,0.8,0.6,1.7,0.9,2.4c0.3,0.8,0.6,1.6,0.9,2.4c2.5-2.5,5.3-4.9,8.3-7.1c3-2.2,5.8-3.9,8.4-5.2l0.6-0.3
		l1.1-0.5l0.3,0.2l0.8-0.3l0.5-0.5h0.6l0.5-0.5l0.3,0.2l0.6-0.3l0.8-0.3l0.2-0.3l0.6-0.2c0.2,0,0.3,0,0.4-0.1
		c0.1-0.1,0.1-0.1,0.2-0.1h0.3L185,80.7z M142.9,121.4c0.1-0.1,0.2-0.3,0.2-0.5L142.9,121.4z M142.9,121.4c0.1-0.1,0.2-0.3,0.2-0.5
		L142.9,121.4z M143.5,120c0.1,0,0.2-0.1,0.2-0.2L143.5,120z M143.7,119.8l-0.2,0.2C143.7,120,143.7,119.9,143.7,119.8z
		 M143.9,117.9v0.3l0.2-0.3H143.9z M143.9,118.2c0-0.1,0.1-0.2,0.2-0.3h-0.2V118.2z M144.2,120l-0.3,0.2l0.2,0.3l0.2-0.3V120z
		 M144.2,120l-0.3,0.2l0.2,0.3l0.2-0.3V120z M144.2,126.8h0.2v0.2L144.2,126.8z M145,116.8l0.2,0.2
		C145.1,116.9,145.1,116.8,145,116.8z M145.1,117c0-0.1-0.1-0.2-0.2-0.2L145.1,117z M148.1,110.8l0.3-0.5v-0.2
		c-0.1,0.1-0.2,0.2-0.2,0.2c0,0.1-0.1,0.1-0.2,0.2V110.8z M148.4,110.2c-0.1,0.1-0.2,0.2-0.2,0.2c0,0.1-0.1,0.1-0.2,0.2v0.2l0.3-0.5
		V110.2z M153.3,76.6h-0.2l-0.2,0.5h0.2L153.3,76.6z M153.2,76.9l-0.2,0.2h0.2l0.2-0.5h-0.2V76.9z M155.8,119.7
		C155.7,119.7,155.8,119.7,155.8,119.7c0.2,0.1,0.5,0.2,0.8,0.2c0.6,0,1.4-0.3,2.4-0.8c0.9-0.5,1.5-1.7,1.6-3.5
		c0-0.5-0.2-1.2-0.5-2.1c-0.3-0.9-0.7-2-1.3-3.4c-1.2,2.1-2,3.9-2.4,5.4c-0.5,1.5-0.7,2.6-0.7,3.2
		C155.7,119.1,155.7,119.5,155.8,119.7z M156.8,76.5c-0.3,1.3-0.5,2.5-0.5,3.8c0,0.5,0,1,0,1.5c0,0.5,0.1,1,0.2,1.5
		c1-2.8,1.8-5.4,2.2-7.6c0.4-2.3,0.7-3.9,0.9-5H159h0.5l0.2-0.2c0-0.4,0-0.7-0.1-0.7c-0.1-0.1-0.1-0.1-0.1-0.2
		c-0.2,0.4-0.4,0.6-0.5,0.6c-0.1,0-0.2,0.1-0.2,0.2l-0.2,0.8l-0.3,0.2l-0.3,1.3c0,0.1-0.1,0.2-0.2,0.2h-0.2l-0.3,0.9l-0.2,0.8h-0.2
		c-0.1,0-0.2,0.1-0.2,0.2l0.2,0.3L156.8,76.5z M156.8,70l0.2-0.2h-0.2V70z M156.8,69.8V70l0.2-0.2H156.8z M167.7,109.6h0.2l-0.2,0.5
		l-0.3-0.2l0.2-0.3H167.7z M169.1,106.9l0.2,0.2c-0.1,0.1-0.1,0.2-0.1,0.2c0.1,0.1,0,0.1-0.1,0.2l-0.3,0.2v-0.2l0.2-0.2v-0.6
		L169.1,106.9z"/>
	<path d="M199.7,103.7c0.2-0.1,0.4-0.1,0.7,0.1c0.3,0.2,0.4,0.3,0.4,0.6c0,0.1-0.1,0.2-0.2,0.2c-0.1,0.1-0.2,0.2-0.3,0.4v0.3
		c0,0.1,0.1,0.2,0.2,0.2c0,0.1-0.1,0.2-0.2,0.2c-0.1,0-0.2,0.1-0.2,0.2c-0.1,0-0.1,0.1,0,0.2c0.1,0.1,0.1,0.2,0,0.3
		c0,0.1-0.1,0.2-0.2,0.2c-0.1,0-0.2,0.1-0.2,0.2c-0.1,0.2-0.1,0.4,0,0.5c0.1,0.1,0.1,0.2,0,0.3l-0.2,0.2v0.3l-0.3,0.9
		c0,0.1-0.1,0.2-0.2,0.2c-0.1,0-0.2,0.1-0.2,0.2c0,0.1,0.1,0.2,0.2,0.3l-0.2,0.5l-0.2,0.6v0.2c-0.1,0.1-0.3,0.2-0.5,0.2
		c0,0.1,0.1,0.2,0.2,0.2c0.1,0.1,0.2,0.1,0.2,0.2l-0.2,0.5l-0.3,1.1c-0.6,2.1-1.4,4.5-2.4,7.1c-0.3,0.6-0.6,1.3-0.9,2
		c-0.3,0.7-0.7,1.4-1.3,2.3c-0.3,0.4-0.6,0.9-0.9,1.3c-0.3,0.5-1,0.9-2.1,1.3c-0.3,0.3-0.6,0.5-0.8,0.6v0.2c-0.5,0.2-1.2,0.2-2,0
		c0-0.1,0.1-0.1,0.2-0.1c0.1,0.1,0.1,0-0.2-0.1h-0.3c-0.1-0.2-0.2-0.4-0.2-0.5c-0.1-0.1-0.1-0.3-0.1-0.5c-0.7-0.4-1.3-0.9-1.6-1.6
		l-0.6-1.9c-0.2-0.5-0.3-1.1-0.3-1.7c0-0.6,0-1.2,0-1.7c-0.7,1.2-1.6,2.5-2.5,4.2c-0.9,1.6-2.3,2.8-4.1,3.5
		c-0.6,0.6-1.5,0.9-2.7,0.9h0.5l-0.2-0.2h0.3c0.2,0,0.4-0.1,0.6-0.3l0.2,0.2l0.5-0.3c0.1,0,0.2,0,0.2-0.1c0-0.1,0.1-0.1,0.2-0.1H177
		l-0.2,0.2l0.2-0.2h-0.6l0.2,0.2l-0.3,0.2c0-0.1-0.2-0.2-0.5-0.2h-0.3v0.2h-0.3h-0.2l-0.2,0.2l0.2,0.2c0,0.1,0.2,0.2,0.5,0.2h-0.3
		c-0.4-0.2-0.8-0.4-1.2-0.7c-0.4-0.3-0.8-0.5-1.2-0.7v-0.2h-0.2c-1-0.6-1.8-1.4-2.3-2.4c-0.5-1-0.8-1.9-0.9-2.8
		c-0.6-2.7-0.9-5.1-0.8-7.1c0-4.5,0.5-8.8,1.4-12.9c0.9-4.1,2.3-7.9,4-11.3c1.7-3.4,3.5-6.4,5.2-8.8c1.7-2.5,3.4-4.4,4.9-5.8
		c1.5-1.4,2.6-2.2,3.2-2.4c0.4-0.2,0.8-0.3,1.3-0.3c0.8,0,1.6,0.7,2.4,2c0.6,1.3,0.9,2.2,0.9,2.8c0,0.6-0.2,1.1-0.6,1.4
		c-0.5,0.5-1.2,1.1-2,1.8c-0.8,0.7-1.7,1.7-2.8,3.1c-1.1,1.4-2.3,3.2-3.6,5.4c-1.3,2.3-2.7,5.3-4.2,9.1c-0.5,1.3-1,2.7-1.5,4.4
		c-0.5,1.7-0.9,3.5-1.3,5.4c-0.4,1.9-0.6,3.8-0.8,5.8c-0.2,1.9-0.1,3.9,0.1,5.8c0.1,1.2,0.3,1.8,0.6,2c0.3,0.2,0.5,0.3,0.5,0.2
		c0.5-0.3,1.1-0.9,1.8-1.7c0.7-0.8,1.3-1.7,1.8-2.5c1.2-1.8,2.2-3.6,3.2-5.4c0.9-1.8,1.8-3.5,2.7-5v-0.2c0.1-0.6,0.2-1.3,0.3-1.9
		c0.1-0.6,0.2-1.3,0.3-1.9c0.6-2.9,1.3-5.7,2-8.4c0.7-2.6,1.4-5,2.1-7c0.7-2,1.3-3.7,1.9-5c0.6-1.3,1-2.1,1.3-2.4
		c0.1-0.3,0.4-0.5,0.8-0.6c0.3-0.1,0.7-0.1,1.1-0.1c0.4,0.1,1,0.3,1.9,0.9c2,1.5,2.8,2.5,2.5,3.2c-0.2,0.5-0.4,1.2-0.7,2
		c-0.3,0.8-0.6,1.8-1.1,3.2c-0.5,1.3-1,2.9-1.7,4.9c-0.6,1.9-1.3,4.4-2,7.3c-0.5,2.2-1.2,4.8-2,7.7c-0.8,2.9-1.5,6-2,9.1
		c0,0.4,0,0.8-0.1,1.2c-0.1,0.4-0.1,0.8-0.1,1.2c0.8-1.3,1.6-2.6,2.3-3.9c0.7-1.4,1.3-2.6,2-3.8v-0.2l0.3-0.5l0.2-0.5v-0.2l0.3-0.6
		c0-0.1,0-0.2,0.1-0.2c0.1-0.1,0.1-0.1,0.1-0.2l0.2-0.2l0.2-0.3h0.2l0.2-0.5H196c0.2-0.4,0.4-0.8,0.6-1.3c0.2-0.4,0.4-0.8,0.6-1.1
		v0.2h-0.2v0.2v0.2l0.3-0.2c0.1-0.1,0.1-0.2,0.1-0.2c-0.1-0.1,0-0.1,0.1-0.2l-0.2-0.2l0.2-0.2c0.1-0.2,0.2-0.3,0.2-0.4
		c0.1-0.1,0,0-0.1,0.1l0.6-0.6v-0.3l0.3-0.3l0.2-0.5c0.1-0.2,0.3-0.4,0.5-0.6c0.1-0.1,0.2-0.2,0.3-0.2h-0.2L199.7,103.7z"/>
	<path d="M299.5,140c0.2,0,0.4,0.1,0.6,0.3c0.5,0.5,0.8,1.2,0.8,1.9c0,1.4-0.3,2.5-0.8,3.5c-0.5,0.9-1.2,1.4-1.9,1.4
		c0.1,0-0.8-0.3-2.8-0.8c-2-0.5-4.8-1.2-8.3-2c-3.5-0.8-7.7-1.8-12.5-2.9c-4.8-1.1-9.9-2.2-15.2-3.4l-3.6-0.6h-0.3
		c-0.2,0-0.4,0-0.6-0.1c-0.2-0.1-0.4-0.1-0.6-0.1h-0.2l-0.2-0.2h-0.2c-0.3,0-0.9-0.1-1.7-0.2c-0.8-0.1-1.4-0.3-1.6-0.5h0.2h-0.2H250
		l-0.2-0.2h-0.2c0,0.1,0.1,0.2,0.2,0.2c-0.5-0.1-1.1-0.2-1.8-0.2c-0.7-0.1-1.3-0.1-2-0.2l0.3-0.5h0.6c-0.5-0.2-1.1-0.3-1.7-0.4
		c-0.6-0.1-1.1-0.1-1.7-0.2l0.3,0.3l0.5,0.2c0.3,0,0.5-0.1,0.5-0.2h0.5l0.6,0.8h-0.6c-0.3-0.1-0.5-0.2-0.5-0.3h-0.2h-0.3h-0.3h-0.5
		l-1.7-0.3c-0.6,0-1.1,0.1-1.4,0.2c-0.7-0.1-1.4-0.2-2.1-0.2c-0.7-0.1-1.4-0.1-2.1-0.1c-0.9,2.5-2.2,5.3-3.7,8.4
		c-1.5,3-3.5,5.9-5.9,8.5c-2.4,2.6-5.4,4.8-8.8,6.5c-3.5,1.7-7.7,2.6-12.6,2.6c-1.3,0-3.4-0.2-6.4-0.6c-3-0.4-6-1.3-9.1-2.5
		c-3.1-1.3-5.9-3.1-8.3-5.4c-2.4-2.4-3.6-5.5-3.6-9.5c0-3.4,1.2-6,3.5-8c2.3-1.9,5.2-3.4,8.8-4.3c3.5-0.9,7.4-1.5,11.7-1.7
		c4.3-0.2,8.3-0.3,12.2-0.3c4.1,0,7.7,0.1,10.8,0.3c3.1,0.2,5,0.3,5.8,0.3c0.5-1.5,0.9-2.8,1.2-3.9c0.3-1.1,0.6-2.4,0.9-3.9
		c-0.3,0.4-0.7,1-1.2,1.7c-0.5,0.7-1.1,1.5-1.7,2.2c-0.7,0.7-1.5,1.4-2.4,1.9c-0.9,0.5-2.1,0.8-3.5,0.8c-2.1,0-3.7-0.5-4.9-1.5
		c-1.2-1-2-2.2-2.5-3.7c-0.5-1.5-0.8-3-0.9-4.7c-0.1-1.6-0.2-3-0.2-4.2c0.5-5.9,1.6-11.5,3.3-16.8c1.7-5.3,3.5-10,5.5-14.2
		c2-4.2,4-7.5,5.9-10.1c1.9-2.6,3.4-4.1,4.3-4.7H234c0-0.2,0.4-0.3,1.3-0.3c0.4,0,1.2,0.3,2.2,0.9c1,0.6,1.6,1.7,1.6,3.3
		c0,0.8-0.3,1.6-0.8,2.1c-0.5,0.6-1.3,1.6-2.4,3.1c-1.1,1.5-2.4,3.7-3.9,6.6c-1.6,2.9-3.4,7.2-5.5,12.8c-0.8,2.7-1.9,6-3.1,9.8
		c-1.2,3.8-1.8,7.5-1.8,11.2c0,3.2,0.6,4.7,1.9,4.7c0.7,0,1.6-0.4,2.6-1.3c1-0.9,2-2,2.9-3.3c0.9-1.3,1.9-2.7,2.8-4.3
		c0.9-1.5,1.7-2.9,2.3-4.2l1.1-3.2l0.3-0.6v-0.3v-0.2c0.9-6.6,1.6-12.1,2-16.4c0.4-4.3,0.7-7,0.9-8.2c0.1-0.9,0.3-1.8,0.6-2.7
		c0.2-0.7,0.6-1.4,1-2c0.5-0.6,1.1-0.9,2-0.9c1.4,0,2.3,0.4,2.8,1.3c0.5,0.9,0.7,2,0.7,3.2c0,2.4-0.2,5.4-0.6,9.1
		c-0.4,3.6-0.9,8.5-1.7,14.7c-0.7,3.5-1.3,7.3-1.8,11.4c-0.5,4.1-1.6,9-3.4,14.8c6.3,0.5,13,1.3,19.9,2.3c7,1,13.4,2,19.3,3.1
		c5.9,1,10.9,2,15,3C296.5,139.1,298.8,139.7,299.5,140z M212.4,152.5c3.8-1.2,7-3.4,9.6-6.7c2.6-3.3,4.8-7,6.5-11.1
		c-1.2,0-2.3,0-3.5-0.1c-1.2-0.1-2.4-0.1-3.5-0.1l-0.6-0.2h-0.5h-0.6l0.2-0.2c-0.1,0.2-0.2,0.3-0.4,0.2c-0.2-0.1-0.3,0-0.4,0.1h-0.6
		H218h-2.4h-0.5l0.2,0.3h-4.9l-0.8,0.2l-0.3-0.2v0.2H209h-1.6l-1.3,0.2h-0.9h-0.8l-0.5,0.2c-0.7,0-1.5,0-2.2,0.1
		c-0.7,0.1-1.4,0.1-1.9,0.2h0.5l0.3-0.2l0.6-0.5h-0.2l0.3-0.2h-0.2l0.3-0.2c0.2,0,0.6-0.1,1.2-0.2c0.6-0.1,1-0.2,1.3-0.3v0.2
		c0.2-0.2,0.7-0.3,1.4-0.4c0.7-0.1,1.2-0.1,1.4-0.1h0.3c0.5-0.1,1.1-0.2,1.6-0.2c0.5-0.1,1.1-0.1,1.7-0.2l-0.3,0.2
		c0.2,0,0.3,0,0.2,0.1c-0.1,0.1,0,0.1,0.2,0.1h-0.2c0-0.2,0.4-0.3,1.2-0.4c0.8-0.1,1.3-0.1,1.5-0.1h1.3h0.3c0.4-0.2,1.3-0.3,2.7-0.3
		c1.4,0,2.5,0,3.5,0h0.2h2.2c-1.1-0.2-2.3-0.3-3.9-0.3s-3.8,0-6.9,0c-0.8,0-1.7,0-2.6,0c-0.9,0-1.7,0.1-2.3,0.2h0.2
		c-1.2,0-2.4,0.1-3.7,0.2c-1.3,0.2-2.5,0.3-3.7,0.4h0.6l0.2-0.2h-0.3l2-0.3c-0.7,0-1.4,0-2,0.1c-0.6,0.1-1.3,0.1-1.9,0.2l-0.3,0.2
		c0,0.2,0.2,0.3,0.5,0.2c0.3-0.1,0.6-0.1,0.9-0.1c-1,0-2.2,0.2-3.4,0.5c-1.2,0.3-2.3,0.6-3.4,0.8l-0.2-0.3c-0.5,0.2-1,0.4-1.5,0.6
		c-0.5,0.2-1,0.4-1.5,0.6l0.6-0.2c0.1-0.1,0.2-0.2,0.3-0.2c0.1,0,0.3-0.1,0.5-0.2l0.6-0.2c-2.4,0.9-4.4,2-5.9,3.2
		c-1.5,1.2-2.3,2.8-2.3,4.7c0,2,0.7,3.7,2.1,5c1.4,1.4,3.2,2.5,5.3,3.3c2.1,0.8,4.4,1.4,6.8,1.8c2.4,0.4,4.7,0.6,6.8,0.6
		C208,153.7,210.4,153.3,212.4,152.5z M199.4,135.8H199c-0.2,0-0.3,0-0.4,0.1c-0.1,0.1-0.1,0.1-0.2,0.1l-0.2-0.2h0.2l0.3-0.2
		l-0.3,0.2v-0.2l-0.3,0.2l-0.2-0.2l-0.2,0.2l0.6-0.5v0.2v0.2c0.3,0,0.5-0.1,0.6-0.2l-0.3,0.2c0-0.1,0-0.2,0.1-0.2
		c0.1,0,0.1-0.1,0.1-0.2h-0.2l0.6-0.2h-0.2c0.1,0.1,0.2,0.1,0.2,0c0-0.1,0.2-0.2,0.5-0.2l-0.2,0.2c-0.1,0-0.2,0.1-0.2,0.2v0.2
		L199.4,135.8z M206,132.8c-0.5,0-1,0-1.4,0c-0.4,0-0.9,0.1-1.4,0.2h1.6c0.3,0,0.6,0,0.7-0.1C205.6,132.8,205.8,132.8,206,132.8z
		 M205.8,134h-0.2c0,0.1,0.1,0.2,0.3,0.2L205.8,134z M207.1,133.9l-0.2,0.2l0.3-0.2H207.1z M209,133.7c0,0.1-0.1,0.2-0.2,0.2
		c-0.2,0-0.3,0.1-0.4,0.2L209,133.7z M210.9,134l-0.2-0.2l-0.2,0.2H210.9z M210.6,134.5l0.6-0.2l-0.2-0.2h-0.3L210.6,134.5z
		 M210.7,133.9c0.1,0,0.2-0.1,0.3-0.2h-0.3V133.9z M214.5,133.7v0.2c0.1,0,0.2-0.1,0.3-0.2H214.5z M216.2,133.7l0.2-0.2
		C216.4,133.6,216.3,133.7,216.2,133.7z M225.1,133.1h0.5h-0.6H225.1z M228.7,134h-0.6l-0.8,0.2h0.8h0.6V134z M237.8,134h-1.1
		c0.1,0.2,0.3,0.3,0.6,0.3l-0.2-0.2l0.5-0.2H237.8z M241.5,134.5c-0.2-0.1-0.4-0.2-0.7-0.2c-0.3,0-0.5-0.1-0.7-0.2v0.2
		c0,0.1,0.1,0.2,0.2,0.2c0.1,0.1,0.3,0.2,0.6,0.2l0.5,0.2L241.5,134.5z M243.7,135l-0.2-0.2c-0.2-0.1-0.7-0.2-1.4-0.2l-0.2,0.5
		l0.9-0.2H243.7z"/>
	<path d="M281.7,96.5c-0.2,1.5-1.1,3-2.8,4.7c-1.6,1.7-3.7,2.7-6.1,3c-0.5,1.2-1.3,3.2-2.4,6.2s-2.5,5.9-4.2,8.6l-0.2,0.3l-0.2,0.3
		l-0.2,0.2v0.2v0.2v0.2l-0.3,0.3v0.3l-0.2,0.2l-0.8,1.3h0.2c-0.2,0.4-0.4,0.8-0.7,1.2c-0.3,0.4-0.6,0.7-0.9,1l-0.3,0.3l-0.2,0.3v0.2
		l-0.8,0.6l-0.5,0.6l-0.6,0.6l-0.5,0.2h0.2c-0.4,0.2-0.8,0.4-1.2,0.7c-0.4,0.3-0.7,0.5-0.9,0.7l0.2-0.2l0.2-0.2l0.2-0.6l-0.2,0.2
		l0.2-0.3l-0.2,0.2v-0.2l-0.2,0.2l-0.2,0.2l-0.3,0.2v0.5v0.5c-0.1,0.1-0.2,0.2-0.3,0.2h-0.2l0.3-0.2l-0.3,0.2v-0.2v0.2h-0.2h-0.2
		l0.2-0.5c0.1,0,0.1,0.1,0.1,0.2c-0.1,0.1,0,0.2,0.1,0.2c0.2,0,0.3-0.1,0.3-0.3l-0.2,0.2l-0.2-0.2l0.2-0.2h-0.2l0.3-0.2h-0.2
		c0.1,0.1,0.1,0.1,0.1,0c-0.1-0.1,0-0.2,0.2-0.2v-0.2c0.2,0,0,0.2-0.7,0.6c-0.7,0.4-1.3,0.6-2,0.6h-0.5c-0.2,0.1-0.5,0.2-0.8,0.2
		c-2.2,0-3.8-0.8-4.9-2.5c-1-1.7-1.8-3.5-2.3-5.5c-0.5-2-0.7-3.8-0.7-5.4c0-1.6,0-2.4,0-2.3c0-5.1,0.5-10.1,1.6-15
		c1-4.8,2.3-9.1,3.8-12.9c1.5-3.8,2.9-6.9,4.4-9.4c1.5-2.5,2.6-4,3.5-4.5h-0.2c0-0.1,0.3-0.3,0.8-0.5c0.5-0.2,1-0.3,1.6-0.3
		c0.8,0,1.6,0.8,2.4,2.4c0.2-0.2,0.6-0.5,1-0.9c0.5-0.4,1.1-0.6,1.8-0.6c3.3,0,5.5,1.6,6.8,4.9c1.3,3.3,1.9,7.4,1.9,12.5
		c0,2.9-0.4,6-1.1,9.3c0.6-0.2,1.3-0.5,1.9-0.8c0.6-0.3,1.1-0.8,1.4-1.4h0.2v-0.5v0.2l0.2-0.2l-0.2-0.2l0.2-0.2l0.2-1.1l0.2-0.5
		l0.3-0.3l-0.2-0.2c0.2-0.8,0.3-1.5,0.3-1.9v0.3l0.5,0.3l0.2,0.2c0,0.1,0,0.2,0.1,0.2c0.1,0,0.1,0.1,0.1,0.2l-0.2,0.9l0.2-0.6
		l0.3-0.9c0-0.1,0.1-0.1,0.2-0.1c0.1,0.1,0.2,0,0.2-0.2v-0.3v-0.2v-0.3l0.3-0.6l-0.2-0.3l0.2-0.6c0-0.3,0.1-0.5,0.2-0.6
		c0-0.1,0.1-0.2,0.2-0.3l-0.2-0.3c0.3-0.3,0.6-0.5,0.9-0.5c0.2,0,0.3,0.2,0.4,0.6c0.1,0.4,0.1,0.8,0.2,1.2l-0.2,0.3
		c0,0.1,0.1,0.2,0.2,0.2l0.2,0.2c0,0.1-0.1,0.2-0.2,0.2c-0.1,0.1-0.2,0.2-0.2,0.4c0,0.1,0.1,0.2,0.2,0.2c0.1,0.1,0.2,0.2,0.2,0.4
		l-0.2,0.2l0.2,1.1l-0.2,0.2c-0.1,0-0.2,0.1-0.2,0.2l0.2,0.3l-0.2,0.3l0.2,0.8c-0.2,0-0.4,0.1-0.5,0.2c0,0.1,0.1,0.2,0.2,0.2
		l0.2,0.2L281.7,96.5z M265.9,102.6c-1.4-0.7-2.5-1.7-3.5-2.9c-0.9-1.2-1.7-2.5-2.3-3.8c-0.6-1.3-1-2.6-1.3-3.8
		c-0.3-1.2-0.4-2.1-0.4-2.8c-0.9,2.5-2.1,6.2-3.5,11c-1.4,4.8-2.1,10.2-2.1,16.2c0,0.7,0,1.6,0.1,2.4c0.1,0.9,0.2,1.7,0.4,2.4
		c0.2,0.7,0.5,1.4,0.8,1.9c0.3,0.5,0.7,0.8,1.3,0.8c0.7,0,1.5-0.4,2.3-1.1c0.8-0.7,1.5-1.7,2.3-2.9c0.7-1.2,1.4-2.5,2.1-3.9
		c0.7-1.4,1.3-2.8,1.8-4.2v-0.3v0.2l0.9-4.4l0.2-0.8v0.2l0.2-0.3h-0.2v-0.3l0.5-1.4l0.2-1.1l0.3-0.8h-0.2h0.2V102.6z M256.9,128.8
		c0.2-0.2,0.3-0.4,0.3-0.5c-0.2,0.2-0.4,0.3-0.6,0.4c-0.2,0.1-0.3,0.1-0.6,0.2H256c-0.3,0-0.6,0-0.8,0.1c-0.2,0.1-0.5,0.1-0.8,0.1
		v0.2l0.2,0.2h0.5h0.5l-0.2-0.2h0.3c0.1-0.1,0.2-0.1,0.3-0.1c0.1,0.1,0.2,0,0.3-0.1l0.2,0.2L256.9,128.8z M260.8,125.3
		c0.4-0.6,0.7-1,0.8-1.1c-0.4,0.5-0.9,1.1-1.4,1.7c-0.5,0.6-0.8,0.9-0.9,0.9v0.3l0.5-0.5l0.2,0.2c0-0.2,0.1-0.5,0.4-0.9
		C260.6,125.5,260.7,125.3,260.8,125.3z M260.7,126.1c0-0.1-0.1-0.2-0.3-0.2L260.7,126.1z M261,125.3h-0.2l0.2,0.2V125.3z
		 M261.5,125l0.2-0.5c0,0.1,0,0.2-0.1,0.2C261.5,124.8,261.5,124.9,261.5,125z M262.1,123.9l0.2-0.2L262.1,123.9v-0.3
		c0,0.1-0.1,0.3-0.3,0.5c0.1-0.1,0.2-0.2,0.2-0.3L262.1,123.9z M262.3,123.9c0.1,0,0.2-0.1,0.2-0.2L262.3,123.9z M262.4,124.1
		l0.2-0.2h-0.2V124.1z M263.1,124.1l-0.2-0.2v0.2h-0.3h0.2v0.3l0.2-0.3H263.1z M265.4,108l-0.3-0.2l-0.5,0.3l0.6,0.3L265.4,108z
		 M267.9,92.9c0-3.6-0.2-6.7-0.5-9.5c-0.3-2.7-0.6-4.3-0.9-4.6c-0.3,0-0.6,0.7-0.7,2c-0.2,1.4-0.2,2.7-0.2,4.1
		c0,0.8,0.1,2.5,0.2,4.9c0.2,2.4,0.8,4.5,2,6.3c0.1-0.5,0.2-1.1,0.2-1.7C267.9,93.9,267.9,93.4,267.9,92.9z"/>
	<path d="M303.1,116.5c-0.2,0-0.3,0.1-0.3,0.2c0,0.2-0.1,0.2-0.3,0.2l-0.2,0.2h-0.6l-0.2-0.2c-0.1,0.1-0.2,0.2-0.3,0.2v0.2v-0.2
		l0.2,0.3c-0.1,0-0.3,0.1-0.6,0.2c-0.3,0.1-0.5,0.2-0.6,0.3v-0.2v0.2h-0.6c-0.2,3.4-0.6,6.7-1.1,9.9c-0.5,3.3-1.5,6.9-3,10.9
		c-0.2,0.6-0.3,1.1-0.3,1.4c-0.1,0-0.2,0.1-0.2,0.2v0.2c-0.1,1-0.5,2.2-1.1,3.5c-0.6,1.3-1.4,2.6-2.2,3.9c-0.8,1.3-1.8,2.6-2.8,3.8
		c-1,1.2-1.9,2.2-2.6,2.9l-0.2-0.2c-0.2,0.4-0.5,0.8-0.9,1.1c-0.4,0.3-0.8,0.6-1.2,0.8c-0.4,0.3-0.9,0.6-1.4,0.8
		c-0.3,0.2-1.1,0.3-2.2,0.3c-1.1-0.1-1.9-0.5-2.7-1.1c-0.7-0.6-1.3-1.4-1.6-2.2l0.2,0.3c-0.1-0.2-0.2-0.4-0.4-0.7
		c-0.2-0.3-0.2-0.5-0.2-0.7l0.2-0.2l-0.2-0.2v0.2v-0.6c-0.3-0.8-0.6-1.7-0.8-2.7c-0.2-0.9-0.4-1.8-0.6-2.4c-0.2-0.7-0.3-1.3-0.3-1.7
		c-0.1-0.5-0.1-0.7-0.1-0.6l0.2-0.3l-0.6-2.2l0.3-0.6c0-0.2-0.1-0.3-0.2-0.4c-0.1-0.1-0.2-0.1-0.2-0.2v-0.8l-0.2-1.4
		c0-0.1,0.1-0.2,0.2-0.3c0-0.1-0.1-0.2-0.2-0.3c-0.1-0.1-0.2-0.2-0.2-0.3v-2.8c0-0.6,0-1.3,0.1-2c0.1-0.7,0.1-1.5,0.1-2.2
		c0.2-3.5,0.7-7.2,1.3-11.1c0.7-3.9,1.5-8,2.4-12.2c-0.2-0.7-0.4-1.5-0.5-2.2c-0.1-0.7-0.1-1.5,0-2.4c0.1-0.8,0.2-1.7,0.4-2.6
		c0.2-0.9,0.5-1.9,1-2.9c0.2-0.2,0.5-0.9,0.9-2c0.4-1.1,1-2.1,1.8-2.9c1.6-5.8,3.2-11.4,4.9-16.8c1.7-5.4,3.3-10.3,4.7-14.6
		c1.5-4.3,2.7-7.9,3.8-10.7c1-2.8,1.7-4.5,1.9-5c0.1-0.2,0.3-0.5,0.5-0.8c0.3-0.5,1-0.8,2-0.8c1.7,0.1,2.8,0.6,3.5,1.3
		c0.6,0.8,0.9,1.4,0.9,2c-0.1,0.9-0.4,2.1-0.8,3.5c-0.4,1.4-1,3.2-1.8,5.4c-0.8,2.3-1.8,5-3,8.4c-1.2,3.3-2.6,7.4-4.2,12.4
		c-0.7,2.1-1.5,4.4-2.4,7c-0.8,2.6-1.6,5.2-2.2,8c3.6,2.5,6.2,5.5,7.9,9.1c1.7,3.5,2.6,7.4,2.8,11.7c1.4,0,2.7-0.4,4.1-1.3l0.2-0.2
		l0.6-0.5l0.2-0.3l0.5-0.3l0.5-0.6c0.2,0,0.3-0.1,0.3-0.2v-0.2l0.2-0.2l0.3-0.5l-0.2-0.2l0.3-0.5l0.3-0.3c0.1,0,0.2-0.1,0.2-0.2
		v-0.2c0.1,0,0.2,0,0.2-0.1c0.1-0.1,0.2,0,0.4,0.1c0.4,0,0.6,0.1,0.6,0.3c-0.1,0-0.2,0.1-0.2,0.2c-0.1,0.1-0.2,0.2-0.2,0.3
		c0,0.1,0.1,0.2,0.2,0.2l0.2,0.2c0,0.1-0.1,0.2-0.2,0.2h-0.2c0,0.1,0.1,0.2,0.2,0.2l0.2,0.2c0,0.1-0.1,0.2-0.2,0.2
		c-0.1,0-0.2,0.1-0.2,0.2c0,0.1,0.1,0.2,0.2,0.3c0.1,0,0.2-0.1,0.2-0.2l0.2,0.3l-0.2-0.2c-0.1,0-0.2,0.1-0.2,0.2l0.2,0.2l-0.2-0.2
		c0.1,0,0.2,0.1,0.3,0.2v-0.2l-0.3,0.3h0.2l-0.2-0.2l-0.3,0.6h0.2l0.2,0.2c0,0.1,0,0.2,0.1,0.2c0.1,0,0.1,0.1,0.1,0.2l-0.3,0.6v0.2
		c0-0.1-0.1,0.1-0.3,0.6c-0.2,0.5-0.4,0.9-0.6,1.1v-0.2v0.2c-0.1,0-0.2-0.1-0.2-0.2c0.1,0,0.2,0.1,0.2,0.3c-0.1,0-0.2,0.1-0.3,0.3
		c-0.1,0.2-0.3,0.4-0.5,0.6h-0.2l-0.5,0.6c-0.1,0.2-0.4,0.5-0.9,0.8h-0.2c-0.1,0.2-0.3,0.4-0.5,0.5c-0.2,0.1-0.4,0.2-0.6,0.3V116.5z
		 M280.2,157c0.1,0,0.2,0,0.2,0.1c0,0.1,0.1,0.1,0.2,0.1h0.2l-0.2-0.2h0.3H280.2z M288.9,135.3c1.6-5.5,2.6-11,3.2-16.6
		c-1.3-0.1-2.6-0.3-4.1-0.5c-1.5-0.2-3-0.8-4.6-1.7c-0.7,3.1-1.3,6.3-1.7,9.7c-0.4,3.4-0.7,6.8-0.9,10.2c-0.2,2.1-0.3,4.2-0.3,6.1
		c0,2,0.1,4,0.2,6c-0.1,0.2-0.2,0.4-0.2,0.6s-0.1,0.3-0.2,0.6c0,0.4,0.1,0.6,0.3,0.6c0.3,0,0.8-0.5,1.6-1.5c0.7-1,1.5-2.3,2.4-3.8
		c0.8-1.5,1.7-3.2,2.4-4.9S288.5,136.7,288.9,135.3z M282.1,157c0.1,0,0.2-0.1,0.2-0.2h-0.2h-0.3C281.8,157,281.9,157,282.1,157z
		 M284.5,155.5c0,0.1-0.1,0.3-0.3,0.5L284.5,155.5z M286.5,100.1c-0.3,1.3-0.6,2.5-0.9,3.7c-0.3,1.2-0.5,2.4-0.7,3.7
		c0.1,0.3,0.5,0.8,1.2,1.5c0.7,0.7,2.6,1.6,5.8,2.6c-0.5-2.7-1.4-5.3-2.5-7.6C288.2,101.6,287.3,100.3,286.5,100.1z M289.4,150.6
		c0.1-0.1,0.2-0.2,0.2-0.3c0,0.1,0,0.2-0.1,0.2C289.4,150.4,289.4,150.5,289.4,150.6z M293.5,143.5c0.1-0.1,0.2-0.2,0.2-0.3
		c0-0.1,0.1-0.2,0.2-0.3C293.6,143.1,293.5,143.3,293.5,143.5z M293.5,143C293.5,142.9,293.5,142.9,293.5,143c0.1,0,0.2-0.1,0.2-0.2
		C293.5,143.1,293.5,143.1,293.5,143c0-0.1,0-0.1,0,0.2V143z M294.6,140.6l0.2-0.2v-0.2L294.6,140.6z"/>
	<path d="M330.5,116.5c-0.2,0-0.3,0.1-0.3,0.2c0,0.2-0.1,0.2-0.3,0.2l-0.2,0.2h-0.6L329,117c-0.1,0.1-0.2,0.2-0.3,0.2v0.2v-0.2
		l0.2,0.3c-0.1,0-0.3,0.1-0.6,0.2c-0.3,0.1-0.5,0.2-0.6,0.3v-0.2v0.2h-0.6c-0.2,3.4-0.6,6.7-1.1,9.9c-0.5,3.3-1.5,6.9-3,10.9
		c-0.2,0.6-0.3,1.1-0.3,1.4c-0.1,0-0.2,0.1-0.2,0.2v0.2c-0.1,1-0.5,2.2-1.1,3.5c-0.6,1.3-1.4,2.6-2.2,3.9c-0.8,1.3-1.8,2.6-2.8,3.8
		c-1,1.2-1.9,2.2-2.6,2.9l-0.2-0.2c-0.2,0.4-0.5,0.8-0.9,1.1c-0.4,0.3-0.8,0.6-1.2,0.8c-0.4,0.3-0.9,0.6-1.4,0.8
		c-0.3,0.2-1.1,0.3-2.2,0.3c-1.1-0.1-1.9-0.5-2.7-1.1c-0.7-0.6-1.3-1.4-1.6-2.2l0.2,0.3c-0.1-0.2-0.2-0.4-0.4-0.7
		c-0.2-0.3-0.2-0.5-0.2-0.7l0.2-0.2l-0.2-0.2v0.2v-0.6c-0.3-0.8-0.6-1.7-0.8-2.7c-0.2-0.9-0.4-1.8-0.6-2.4c-0.2-0.7-0.3-1.3-0.3-1.7
		c-0.1-0.5-0.1-0.7-0.1-0.6l0.2-0.3l-0.6-2.2l0.3-0.6c0-0.2-0.1-0.3-0.2-0.4c-0.1-0.1-0.2-0.1-0.2-0.2v-0.8l-0.2-1.4
		c0-0.1,0.1-0.2,0.2-0.3c0-0.1-0.1-0.2-0.2-0.3c-0.1-0.1-0.2-0.2-0.2-0.3v-2.8c0-0.6,0-1.3,0.1-2c0.1-0.7,0.1-1.5,0.1-2.2
		c0.2-3.5,0.7-7.2,1.3-11.1c0.7-3.9,1.5-8,2.4-12.2c-0.2-0.7-0.4-1.5-0.5-2.2c-0.1-0.7-0.1-1.5,0-2.4c0.1-0.8,0.2-1.7,0.4-2.6
		c0.2-0.9,0.5-1.9,1-2.9c0.2-0.2,0.5-0.9,0.9-2c0.4-1.1,1-2.1,1.8-2.9c1.6-5.8,3.2-11.4,4.9-16.8c1.7-5.4,3.3-10.3,4.7-14.6
		c1.5-4.3,2.7-7.9,3.8-10.7c1-2.8,1.7-4.5,1.9-5c0.1-0.2,0.3-0.5,0.5-0.8c0.3-0.5,1-0.8,2-0.8c1.7,0.1,2.8,0.6,3.5,1.3
		c0.6,0.8,0.9,1.4,0.9,2c-0.1,0.9-0.4,2.1-0.8,3.5c-0.4,1.4-1,3.2-1.8,5.4c-0.8,2.3-1.8,5-3,8.4c-1.2,3.3-2.6,7.4-4.2,12.4
		c-0.7,2.1-1.5,4.4-2.4,7c-0.8,2.6-1.6,5.2-2.2,8c3.6,2.5,6.2,5.5,7.9,9.1c1.7,3.5,2.6,7.4,2.8,11.7c1.4,0,2.7-0.4,4.1-1.3l0.2-0.2
		l0.6-0.5l0.2-0.3l0.5-0.3l0.5-0.6c0.2,0,0.3-0.1,0.3-0.2v-0.2l0.2-0.2l0.3-0.5l-0.2-0.2l0.3-0.5l0.3-0.3c0.1,0,0.2-0.1,0.2-0.2
		v-0.2c0.1,0,0.2,0,0.2-0.1c0.1-0.1,0.2,0,0.4,0.1c0.4,0,0.6,0.1,0.6,0.3c-0.1,0-0.2,0.1-0.2,0.2c-0.1,0.1-0.2,0.2-0.2,0.3
		c0,0.1,0.1,0.2,0.2,0.2l0.2,0.2c0,0.1-0.1,0.2-0.2,0.2h-0.2c0,0.1,0.1,0.2,0.2,0.2l0.2,0.2c0,0.1-0.1,0.2-0.2,0.2
		c-0.1,0-0.2,0.1-0.2,0.2c0,0.1,0.1,0.2,0.2,0.3c0.1,0,0.2-0.1,0.2-0.2l0.2,0.3l-0.2-0.2c-0.1,0-0.2,0.1-0.2,0.2l0.2,0.2l-0.2-0.2
		c0.1,0,0.2,0.1,0.3,0.2v-0.2l-0.3,0.3h0.2l-0.2-0.2l-0.3,0.6h0.2l0.2,0.2c0,0.1,0,0.2,0.1,0.2c0.1,0,0.1,0.1,0.1,0.2l-0.3,0.6v0.2
		c0-0.1-0.1,0.1-0.3,0.6c-0.2,0.5-0.4,0.9-0.6,1.1v-0.2v0.2c-0.1,0-0.2-0.1-0.2-0.2c0.1,0,0.2,0.1,0.2,0.3c-0.1,0-0.2,0.1-0.3,0.3
		c-0.1,0.2-0.3,0.4-0.5,0.6h-0.2l-0.5,0.6c-0.1,0.2-0.4,0.5-0.9,0.8h-0.2c-0.1,0.2-0.3,0.4-0.5,0.5c-0.2,0.1-0.4,0.2-0.6,0.3V116.5z
		 M307.7,157c0.1,0,0.2,0,0.2,0.1c0,0.1,0.1,0.1,0.2,0.1h0.2L308,157h0.3H307.7z M316.3,135.3c1.6-5.5,2.6-11,3.2-16.6
		c-1.3-0.1-2.6-0.3-4.1-0.5c-1.5-0.2-3-0.8-4.6-1.7c-0.7,3.1-1.3,6.3-1.7,9.7c-0.4,3.4-0.7,6.8-0.9,10.2c-0.2,2.1-0.3,4.2-0.3,6.1
		c0,2,0.1,4,0.2,6c-0.1,0.2-0.2,0.4-0.2,0.6s-0.1,0.3-0.2,0.6c0,0.4,0.1,0.6,0.3,0.6c0.3,0,0.8-0.5,1.6-1.5c0.7-1,1.5-2.3,2.4-3.8
		c0.8-1.5,1.7-3.2,2.4-4.9S315.9,136.7,316.3,135.3z M309.6,157c0.1,0,0.2-0.1,0.2-0.2h-0.2h-0.3C309.2,157,309.4,157,309.6,157z
		 M311.9,155.5c0,0.1-0.1,0.3-0.3,0.5L311.9,155.5z M314,100.1c-0.3,1.3-0.6,2.5-0.9,3.7c-0.3,1.2-0.5,2.4-0.7,3.7
		c0.1,0.3,0.5,0.8,1.2,1.5c0.7,0.7,2.6,1.6,5.8,2.6c-0.5-2.7-1.4-5.3-2.5-7.6C315.7,101.6,314.7,100.3,314,100.1z M316.8,150.6
		c0.1-0.1,0.2-0.2,0.2-0.3c0,0.1,0,0.2-0.1,0.2C316.8,150.4,316.8,150.5,316.8,150.6z M320.9,143.5c0.1-0.1,0.2-0.2,0.2-0.3
		c0-0.1,0.1-0.2,0.2-0.3C321,143.1,320.9,143.3,320.9,143.5z M320.9,143C320.9,142.9,320.9,142.9,320.9,143c0.1,0,0.2-0.1,0.2-0.2
		C321,143.1,320.9,143.1,320.9,143c0-0.1,0-0.1,0,0.2V143z M322,140.6l0.2-0.2v-0.2L322,140.6z"/>
	<path d="M332,123.9c-0.2-1-0.3-2-0.4-2.8c-0.1-0.8-0.1-1.6-0.1-2.4c-0.1-3.2,0.1-6.3,0.6-9.3c0.5-3,1.1-6,1.6-8.8
		c1.5-8.1,3-14,4.5-17.7c1.5-3.7,2.7-5.6,3.5-5.6c0.7,0,1.4,0.2,2,0.6c0.6,0.4,1.1,0.9,1.6,1.3c0.5,0.5,1,1.1,1.5,2
		c0,0.8-0.5,2.5-1.5,4.9c-1,2.4-2.2,6.5-3.5,12.3c-0.3,1.5-0.8,3.2-1.3,5.1c-0.6,1.9-1.2,4-1.7,6.1c-0.6,2.1-1.1,4.2-1.4,6.4
		c-0.4,2.2-0.6,4.1-0.6,5.9c0,0.2,0,0.4,0.1,0.6c0.1,0.2,0.1,0.4,0.1,0.6c0.3-0.3,1.1-0.9,2.3-1.7c1.2-0.8,2-1.6,2.4-2.4l1.1-1.1
		l0.8-0.5l0.3-0.6l0.3-0.3l0.2-0.2l0.6-0.6h-0.2c0.5-0.5,1.1-1.2,1.7-2l-0.2,0.3l-0.2,0.3l0.3-0.2l0.3-0.5v-0.3
		c0-0.1,0.1-0.2,0.2-0.3h0.2l-0.2,0.2l0.2-0.2l0.2-0.2v0.2l0.2-0.3v0.2l0.5-0.5c0.1-0.2,0.2-0.3,0.3-0.4c0.1-0.1,0.2-0.1,0.3-0.2
		c0.1-0.1,0.2-0.2,0.3-0.2h-0.2l0.2-0.2h0.2c0.2,0,0.4,0.1,0.6,0.2c0.2,0.1,0.3,0.3,0.3,0.5c0,0.1-0.1,0.2-0.4,0.4
		c-0.3,0.2-0.4,0.3-0.4,0.6c0,0.1,0.1,0.2,0.2,0.3c0-0.1-0.2,0-0.5,0.3v0.3c0-0.2,0-0.2,0,0.2c0,0.3-0.2,0.7-0.6,1.1l-0.2,0.5
		l-0.9,0.9l-0.3,0.8l-0.5,0.8c0,0.1-0.1,0.1-0.2,0.1c-0.1-0.1-0.2,0-0.2,0.1v0.3l-0.9,1.4c-0.3,0.5-0.7,1.2-1.3,2
		c-0.5,0.8-1.2,1.6-1.9,2.4c-0.7,0.8-1.6,1.5-2.4,2.1c-0.9,0.6-1.9,1-3.1,1.1c-0.7,0-1.5-0.2-2.3-0.7c-0.8-0.5-1.3-1-1.5-1.5
		L332,123.9z M342.2,68.4l0.2-0.8c0-0.1,0-0.2,0.1-0.2c0.1-0.1,0.1-0.1,0.1-0.2v-0.3c0-0.1,0-0.2,0.1-0.3c0.1-0.1,0.1-0.3,0.1-0.5
		l0.3,0.3v0.3v0.6h-0.3l0.2,0.2c0,0.2,0.1,0.3,0.2,0.3l0.5,0.2l-0.3-0.8l-0.2,0.2l0.3-0.3l0.2-0.2v-0.3c0-0.3,0.1-0.5,0.2-0.6
		l-0.2-0.2h-0.3c0,0.1-0.1,0.2-0.2,0.2v0.2l0.2-0.5L343,65l0.3-1.7c0.1-0.1,0.2-0.2,0.3-0.2v-0.2l0.2-0.3l0.3-0.8
		c0-0.9,0.3-1.9,0.8-2.8c0.5-0.9,1.1-1.7,1.7-2.4c0.6-0.7,1.3-1.3,1.9-1.7c0.6-0.4,1-0.6,1.3-0.6c0.8,0,1.4,0.4,1.8,1.2
		c0.4,0.8,0.7,1.8,0.9,3.1v0.2l0.3,0.5l-0.3-0.3v0.8l0.5,0.3l-0.2,1.4l0.2,0.2l-0.2-0.2v0.2c0.1,0,0.2,0.1,0.2,0.2l-0.2,0.8v0.6
		l-0.2,0.9c-0.2,0.4-0.4,0.9-0.6,1.3c-0.2,0.5-0.3,0.8-0.4,1v-0.3v-0.3l-0.2-0.5l-0.5,1.4l0.3-0.2v0.3V67v0.2l-0.2-0.2v0.2l0.2,0.2
		v-0.2v0.3h-0.2c0.1,0,0.2,0.1,0.2,0.2l-0.2-0.2l-0.3-0.2c-0.1,0.1-0.2,0.2-0.2,0.2c0,0.1-0.1,0.1-0.2,0.2l0.3,0.3l0.2,0.3l-0.2-0.2
		c0.1,0.1,0.2,0.3,0.2,0.5l-0.5,0.6v0.2l-0.3,0.9c-0.1,0.2-0.2,0.5-0.3,0.8c-0.1,0.3-0.2,0.5-0.3,0.6l-0.2-0.2v0.2h-0.2
		c0.1,0,0.2,0.1,0.2,0.3c-0.2,0.2-0.3,0.4-0.3,0.6c0,0.2-0.2,0.4-0.5,0.6h-0.2l-0.6,0.8c-0.3,0.6-0.8,1-1.4,1.1h-0.2
		c-0.4,0.2-0.7,0.3-0.9,0.3c-0.4,0-0.8-0.2-1.1-0.5l0.2-0.2l-0.2-0.2c-0.1,0-0.2,0.1-0.2,0.2c-0.2-0.5-0.4-0.8-0.6-0.9
		c-0.2-0.1-0.4-0.3-0.5-0.5h0.2l-0.2-0.3h0.3l-0.2-0.5l-0.2-0.2l-0.2,0.3c-0.2-0.4-0.3-0.7-0.3-0.8l-0.2-0.8c0-0.1,0-0.2-0.1-0.2
		c-0.1-0.1-0.1-0.2-0.1-0.4c0-0.2,0-0.4,0.1-0.5c0.1-0.1,0.1-0.3,0.1-0.5l-0.2-1.1l0.8-0.2l0.2-0.5h-0.3l-0.5-0.2v0.5H342.2z
		 M343,70.6l0.2-0.3l-0.3,0.2v-0.2c0.2,0,0.3-0.1,0.3-0.3h-0.3v-0.2l-0.2-0.2l-0.3,0.3v0.2l0.3,0.3l-0.3,0.2l0.2,0.2
		c0,0.2,0.1,0.3,0.2,0.3l0.3-0.3V70.6z M343.8,64.3v-0.5l-0.5-0.2l0.2,0.9L343.8,64.3z M343.3,72.8l0.2,0.6l0.5-0.3l-0.2-0.2h0.2
		l-0.2-0.3l-0.2,0.2H343.3z M343.9,73.3v0.3l0.3,0.2v-0.3L343.9,73.3z M347.2,113l-0.3,0.3l0.2,0.2v-0.2h0.2v-0.2V113z M348.7,71.7
		l0.2,0.2v-0.2l0.2-0.2l-0.2-0.2l-0.2,0.2V71.7z M350.1,70.6h0.2l-0.2-0.2V70.6z M350.4,70.2c-0.1,0-0.2-0.1-0.2-0.2L350.4,70.2z
		 M352,63.7h0.3l-0.3-0.3V63.7z M352.1,63.1l0.3,0.2l-0.3-0.6V63.1z M352.3,61.2l0.2-0.2h-0.2V61.2z M352.6,62.4
		c0.1,0,0.2-0.1,0.2-0.2C352.7,62.3,352.6,62.3,352.6,62.4C352.7,62.4,352.7,62.4,352.6,62.4z M352.9,60.5l-0.2,0.2
		C352.8,60.6,352.8,60.5,352.9,60.5z"/>
	<path d="M374.2,76.9c0.8,0.7,1.3,1.5,1.5,2.3c0.2,0.8,0.2,1.3,0.2,1.7c-0.1,2.7-0.5,5.2-1.2,7.5c-0.7,2.3-1.3,4.4-1.8,6.5
		c-1.5,5.4-2.5,10.2-3.2,14.5c-0.6,4.3-0.9,7.7-0.9,10.2c0,1.8,0.1,2.9,0.3,3.5c0.2,0.5,0.3,0.8,0.3,0.9c0-0.1-0.1,0-0.2,0.4
		c-0.2,0.4-0.4,0.8-0.9,1.3c-0.4,0.5-0.9,1-1.5,1.4c-0.6,0.4-1.3,0.6-2.1,0.6c-1.2,0-2-0.9-2.6-2.8c-0.6-1.9-0.9-4.2-0.9-6.8
		c0-2.8,0.4-6.8,1.3-11.8c0.9-5,2.5-11.3,5-18.8c0-0.1,0-0.2,0.1-0.2c0.1-0.1,0.1-0.1,0.1-0.2c-2.1,2.3-3.8,4.7-5,7
		c-1.3,2.4-2.6,4.8-4.1,7.2l-0.3,0.3c0,0.1,0,0.2-0.1,0.2c-0.1,0.1-0.1,0.1-0.1,0.2l-0.3,0.5v-0.2v0.2v0.3v0.2l-0.5,0.9l-0.6,1.4
		c-0.6,4-1.1,7.7-1.4,11.1c-0.3,3.4-0.5,6-0.5,7.8c0,1,0.1,1.6,0.2,1.7c0,0.1-0.2,0.3-0.5,0.7c-0.3,0.4-1.6,0.6-3.9,0.6
		c-2,0-3-0.4-3.1-1.3c-0.1-0.9-0.1-2.2-0.1-4c0-1.7,0.2-4.1,0.5-7.3l-0.3,1.1l-0.2-0.2l0.2,0.3l-1.1,2l-0.2,0.5v-0.2l-0.2,0.2
		l0.2,0.2H346l-0.3,0.6l-0.3,0.6l-0.5,0.6l-0.3,0.2h0.2c-0.6,0.8-1.1,1.4-1.4,1.6v-0.2l0.3-0.2l-0.2-0.5l-0.2-0.2l0.2-0.2
		c0-0.1-0.1-0.2-0.2-0.2l0.2-0.2l0.5-0.8l0.2,0.2v-0.2c0-0.2,0.1-0.4,0.2-0.7c0.1-0.3,0.3-0.4,0.5-0.6l0.6-1.4v0.2
		c0-0.1,0-0.1,0.1-0.1c0.1,0.1,0.1,0,0.1-0.1c0.1,0,0.1-0.1-0.2-0.3c0.2-0.2,0.3-0.4,0.3-0.6c-0.2,0.2-0.3,0.4-0.3,0.5l-0.3,0.6
		l-0.6,0.9l-0.5,0.6l-0.5,0.6l-0.6,0.9l-0.5,0.6l-0.3,0.3l-0.5,0.6l-0.5,0.5c-0.3,0.3-0.5,0.5-0.6,0.5h-0.2h0.2l-0.2,0.2
		c-0.4,0-0.6-0.3-0.6-0.8c0.1,0,0.2-0.1,0.3-0.2c0.1-0.1,0.2-0.3,0.2-0.5l0.3-0.2l0.3-0.5v-0.6h0.3l0.3-0.9l0.2-0.5l0.3-0.8l0.5-0.3
		l-0.2-0.2l0.5-1.3c1.2-2.3,2.3-5.1,3.5-8.4c1.2-3.3,2.3-6.7,3.4-10.2c1.1-3.5,2.2-7,3.2-10.4c1-3.4,2-6.4,2.9-8.9
		c0.5-2.2,0.8-4,0.9-5.3c0.1-1.3,0.9-2,2.4-2c2.1,0,3.6,0.4,4.5,1.1c0.9,0.7,1.3,1.3,1.3,1.6c0,0.9-0.4,2.4-1.1,4.3
		c-0.7,1.9-1.7,4.9-3,9.1c0.3-0.5,0.6-1,0.9-1.5c0.3-0.5,0.6-1,0.9-1.5c0.4-0.5,0.9-1.3,1.5-2.3c0.6-1,1.2-2,2-2.9
		c0.7-0.9,1.5-1.8,2.4-2.4c0.9-0.7,1.9-1,3.1-1C372.2,76,373,76.3,374.2,76.9z M346.1,117.6v-0.2l-0.2,0.2l0.2,0.3l0.2-0.3H346.1z
		 M346.1,115.7l0.2-0.2h-0.2V115.7z"/>
</g>
<g>
	<path d="M44.2,175.7v4.5h-0.9v-10.9h3.8c1.1,0,2,0.3,2.7,0.9c0.6,0.6,0.9,1.4,0.9,2.3c0,1-0.3,1.7-0.9,2.3s-1.5,0.9-2.7,0.9H44.2z
		 M44.2,174.9h2.9c0.9,0,1.6-0.2,2-0.7c0.4-0.5,0.7-1,0.7-1.7c0-0.7-0.2-1.3-0.7-1.7s-1.1-0.7-2-0.7h-2.9V174.9z"/>
	<path d="M60.8,180.2h-0.9v-5h-6.2v5h-0.9v-10.9h0.9v5.1h6.2v-5.1h0.9V180.2z"/>
	<path d="M71.5,175.6c0,1.4-0.4,2.5-1.2,3.4c-0.8,0.9-1.8,1.3-3.1,1.3c-1.3,0-2.3-0.4-3.1-1.3c-0.8-0.9-1.1-2-1.1-3.4v-1.8
		c0-1.4,0.4-2.5,1.1-3.4s1.8-1.3,3.1-1.3c1.3,0,2.3,0.4,3.1,1.3c0.8,0.9,1.2,2,1.2,3.4V175.6z M70.6,173.8c0-1.2-0.3-2.1-0.9-2.8
		c-0.6-0.7-1.4-1.1-2.5-1.1c-1,0-1.8,0.4-2.4,1.1c-0.6,0.7-0.9,1.7-0.9,2.8v1.8c0,1.2,0.3,2.1,0.9,2.9s1.4,1.1,2.4,1.1
		c1.1,0,1.9-0.4,2.5-1.1c0.6-0.7,0.9-1.7,0.9-2.9V173.8z"/>
	<path d="M81,170.1h-3.7v10.1h-0.9v-10.1h-3.8v-0.8H81V170.1z"/>
	<path d="M90.6,175.6c0,1.4-0.4,2.5-1.2,3.4c-0.8,0.9-1.8,1.3-3.1,1.3c-1.3,0-2.3-0.4-3.1-1.3c-0.8-0.9-1.1-2-1.1-3.4v-1.8
		c0-1.4,0.4-2.5,1.1-3.4s1.8-1.3,3.1-1.3c1.3,0,2.3,0.4,3.1,1.3c0.8,0.9,1.2,2,1.2,3.4V175.6z M89.7,173.8c0-1.2-0.3-2.1-0.9-2.8
		c-0.6-0.7-1.4-1.1-2.5-1.1c-1,0-1.8,0.4-2.4,1.1c-0.6,0.7-0.9,1.7-0.9,2.8v1.8c0,1.2,0.3,2.1,0.9,2.9s1.4,1.1,2.4,1.1
		c1.1,0,1.9-0.4,2.5-1.1c0.6-0.7,0.9-1.7,0.9-2.9V173.8z"/>
	<path d="M100.6,178.7c-0.2,0.4-0.7,0.8-1.3,1.1c-0.6,0.3-1.5,0.5-2.4,0.5c-1.3,0-2.3-0.4-3.1-1.3c-0.8-0.9-1.2-2-1.2-3.4v-2
		c0-1.3,0.4-2.4,1.2-3.3c0.8-0.8,1.8-1.3,3-1.3c1.2,0,2.1,0.3,2.8,0.9c0.7,0.6,1,1.4,1,2.4l0,0h-0.8c0-0.8-0.3-1.4-0.8-1.9
		c-0.5-0.5-1.3-0.7-2.2-0.7c-1,0-1.8,0.4-2.4,1.1c-0.6,0.7-0.9,1.6-0.9,2.7v2c0,1.1,0.3,2.1,0.9,2.8c0.6,0.7,1.4,1.1,2.4,1.1
		c0.8,0,1.4-0.1,1.9-0.3c0.5-0.2,0.8-0.5,1-0.8v-2.8h-2.9v-0.8h3.8V178.7z"/>
	<path d="M104.3,175.3v4.9h-0.9v-10.9h3.6c1.2,0,2.1,0.3,2.7,0.8c0.6,0.5,0.9,1.3,0.9,2.2c0,0.6-0.2,1.1-0.5,1.6
		c-0.3,0.5-0.8,0.8-1.4,1c0.7,0.2,1.2,0.5,1.5,0.9c0.3,0.4,0.4,1,0.4,1.6v1c0,0.3,0,0.6,0.1,0.9c0.1,0.3,0.2,0.5,0.4,0.7v0.2h-0.9
		c-0.2-0.2-0.3-0.4-0.4-0.8c-0.1-0.3-0.1-0.7-0.1-1v-1c0-0.7-0.2-1.2-0.6-1.6c-0.4-0.4-1-0.6-1.8-0.6H104.3z M104.3,174.5h2.6
		c1,0,1.7-0.2,2.2-0.6c0.5-0.4,0.7-0.9,0.7-1.6c0-0.7-0.2-1.3-0.7-1.7c-0.5-0.4-1.1-0.6-2.1-0.6h-2.7V174.5z"/>
	<path d="M119.1,177.2h-4.8l-1.1,3h-0.9l4-10.9h0.8l4,10.9h-0.9L119.1,177.2z M114.6,176.4h4.2l-2.1-5.8h0L114.6,176.4z"/>
	<path d="M123.7,175.7v4.5h-0.9v-10.9h3.8c1.1,0,2,0.3,2.7,0.9c0.6,0.6,0.9,1.4,0.9,2.3c0,1-0.3,1.7-0.9,2.3s-1.5,0.9-2.7,0.9H123.7
		z M123.7,174.9h2.9c0.9,0,1.6-0.2,2-0.7c0.4-0.5,0.7-1,0.7-1.7c0-0.7-0.2-1.3-0.7-1.7s-1.1-0.7-2-0.7h-2.9V174.9z"/>
	<path d="M140.2,180.2h-0.9v-5h-6.2v5h-0.9v-10.9h0.9v5.1h6.2v-5.1h0.9V180.2z"/>
	<path d="M146.1,175.4l3.4-6h1l-4,6.9v4h-0.9v-4l-3.9-6.9h1L146.1,175.4z"/>
	<path d="M167.4,178.7c-0.2,0.4-0.7,0.8-1.3,1.1c-0.6,0.3-1.5,0.5-2.4,0.5c-1.3,0-2.3-0.4-3.1-1.3c-0.8-0.9-1.2-2-1.2-3.4v-2
		c0-1.3,0.4-2.4,1.2-3.3c0.8-0.8,1.8-1.3,3-1.3c1.2,0,2.1,0.3,2.8,0.9c0.7,0.6,1,1.4,1,2.4l0,0h-0.8c0-0.8-0.3-1.4-0.8-1.9
		c-0.5-0.5-1.3-0.7-2.2-0.7c-1,0-1.8,0.4-2.4,1.1c-0.6,0.7-0.9,1.6-0.9,2.7v2c0,1.1,0.3,2.1,0.9,2.8c0.6,0.7,1.4,1.1,2.4,1.1
		c0.8,0,1.4-0.1,1.9-0.3c0.5-0.2,0.8-0.5,1-0.8v-2.8h-2.9v-0.8h3.8V178.7z"/>
	<path d="M171.1,175.3v4.9h-0.9v-10.9h3.6c1.2,0,2.1,0.3,2.7,0.8c0.6,0.5,0.9,1.3,0.9,2.2c0,0.6-0.2,1.1-0.5,1.6
		c-0.3,0.5-0.8,0.8-1.4,1c0.7,0.2,1.2,0.5,1.5,0.9c0.3,0.4,0.4,1,0.4,1.6v1c0,0.3,0,0.6,0.1,0.9c0.1,0.3,0.2,0.5,0.4,0.7v0.2H177
		c-0.2-0.2-0.3-0.4-0.4-0.8c-0.1-0.3-0.1-0.7-0.1-1v-1c0-0.7-0.2-1.2-0.6-1.6c-0.4-0.4-1-0.6-1.8-0.6H171.1z M171.1,174.5h2.6
		c1,0,1.7-0.2,2.2-0.6c0.5-0.4,0.7-0.9,0.7-1.6c0-0.7-0.2-1.3-0.7-1.7c-0.5-0.4-1.1-0.6-2.1-0.6h-2.7V174.5z"/>
	<path d="M185.9,177.2h-4.8l-1.1,3h-0.9l4-10.9h0.8l4,10.9H187L185.9,177.2z M181.4,176.4h4.2l-2.1-5.8h0L181.4,176.4z"/>
	<path d="M190.5,175.7v4.5h-0.9v-10.9h3.8c1.1,0,2,0.3,2.7,0.9c0.6,0.6,0.9,1.4,0.9,2.3c0,1-0.3,1.7-0.9,2.3s-1.5,0.9-2.7,0.9H190.5
		z M190.5,174.9h2.9c0.9,0,1.6-0.2,2-0.7c0.4-0.5,0.7-1,0.7-1.7c0-0.7-0.2-1.3-0.7-1.7s-1.1-0.7-2-0.7h-2.9V174.9z"/>
	<path d="M207,180.2h-0.9v-5h-6.2v5H199v-10.9h0.9v5.1h6.2v-5.1h0.9V180.2z"/>
	<path d="M210.9,180.2H210v-10.9h0.9V180.2z"/>
	<path d="M221.4,176.8L221.4,176.8c0,1.1-0.3,2-1,2.6c-0.7,0.6-1.7,1-2.8,1c-1.2,0-2.2-0.4-2.9-1.3c-0.7-0.9-1.1-2-1.1-3.4v-1.8
		c0-1.4,0.4-2.5,1.1-3.4c0.7-0.9,1.7-1.3,2.9-1.3c1.2,0,2.1,0.3,2.8,0.9c0.7,0.6,1.1,1.5,1,2.6l0,0h-0.8c0-0.9-0.3-1.6-0.8-2.1
		s-1.3-0.7-2.2-0.7c-1,0-1.7,0.4-2.3,1.1c-0.6,0.7-0.9,1.7-0.9,2.8v1.8c0,1.2,0.3,2.1,0.9,2.9c0.6,0.7,1.3,1.1,2.3,1.1
		c0.9,0,1.7-0.2,2.2-0.7s0.8-1.2,0.8-2.1H221.4z"/>
	<path d="M227.5,180.2v-10.9h3.3c1.3,0,2.4,0.4,3.3,1.3c0.9,0.9,1.3,2,1.3,3.4v1.4c0,1.4-0.4,2.5-1.3,3.4s-2,1.3-3.3,1.3H227.5z
		 M228.4,170.1v9.4h2.4c1.1,0,2-0.4,2.7-1.1c0.7-0.8,1-1.7,1-2.9V174c0-1.1-0.3-2.1-1-2.8c-0.7-0.8-1.6-1.1-2.7-1.1H228.4z"/>
	<path d="M243.6,174.9h-4.9v4.5h5.6v0.8h-6.5v-10.9h6.5v0.8h-5.6v4.1h4.9V174.9z"/>
	<path d="M252.4,177.5c0-0.6-0.2-1-0.7-1.4c-0.4-0.4-1.2-0.7-2.3-1c-1.2-0.3-2-0.7-2.7-1.2c-0.6-0.5-0.9-1.1-0.9-1.9
		c0-0.8,0.3-1.5,1-2.1c0.7-0.5,1.5-0.8,2.6-0.8c1.1,0,2,0.3,2.7,0.9c0.7,0.6,1,1.4,1,2.3l0,0h-0.8c0-0.7-0.3-1.3-0.8-1.8
		c-0.5-0.5-1.2-0.7-2-0.7c-0.8,0-1.5,0.2-2,0.6s-0.7,0.9-0.7,1.5c0,0.6,0.2,1,0.7,1.4s1.2,0.7,2.3,1c1.1,0.3,2,0.7,2.6,1.2
		s0.9,1.1,0.9,1.9c0,0.8-0.4,1.5-1.1,2c-0.7,0.5-1.6,0.8-2.7,0.8c-1.1,0-2-0.3-2.8-0.8c-0.8-0.5-1.2-1.3-1.2-2.4l0,0h0.8
		c0,0.8,0.3,1.5,1,1.9c0.6,0.4,1.4,0.6,2.2,0.6c0.8,0,1.5-0.2,2-0.6C252.1,178.6,252.4,178.1,252.4,177.5z"/>
	<path d="M256.6,180.2h-0.9v-10.9h0.9V180.2z"/>
	<path d="M267.4,178.7c-0.2,0.4-0.7,0.8-1.3,1.1c-0.6,0.3-1.5,0.5-2.4,0.5c-1.3,0-2.3-0.4-3.1-1.3s-1.2-2-1.2-3.4v-2
		c0-1.3,0.4-2.4,1.2-3.3s1.8-1.3,3-1.3c1.2,0,2.1,0.3,2.8,0.9s1,1.4,1,2.4l0,0h-0.8c0-0.8-0.3-1.4-0.8-1.9c-0.5-0.5-1.3-0.7-2.2-0.7
		c-1,0-1.8,0.4-2.4,1.1c-0.6,0.7-0.9,1.6-0.9,2.7v2c0,1.1,0.3,2.1,0.9,2.8c0.6,0.7,1.4,1.1,2.4,1.1c0.8,0,1.4-0.1,1.9-0.3
		s0.8-0.5,1-0.8v-2.8h-2.9v-0.8h3.8V178.7z"/>
	<path d="M278.2,180.2h-0.9l-6.2-9.3l0,0v9.3h-0.9v-10.9h0.9l6.2,9.3l0,0v-9.3h0.9V180.2z"/>
	<path d="M290.3,177.1l0.3,1.8h0l0.4-1.8l2.3-7.8h0.9l2.3,7.8l0.4,1.8h0l0.4-1.8l1.9-7.8h1l-2.8,10.9h-0.9l-2.5-8.4l-0.3-1.2h0
		l-0.3,1.2l-2.5,8.4h-0.9l-2.8-10.9h1L290.3,177.1z"/>
	<path d="M307.7,174.9h-4.9v4.5h5.6v0.8H302v-10.9h6.5v0.8h-5.6v4.1h4.9V174.9z"/>
	<path d="M310.4,180.2v-10.9h3.2c1.1,0,2,0.2,2.6,0.7c0.6,0.5,0.9,1.2,0.9,2.1c0,0.5-0.2,1-0.5,1.4s-0.7,0.7-1.2,0.9
		c0.7,0.1,1.2,0.4,1.7,0.9c0.4,0.5,0.7,1.1,0.7,1.8c0,1-0.3,1.7-0.9,2.2s-1.5,0.8-2.5,0.8H310.4z M311.3,174.2h2.6
		c0.8,0,1.3-0.2,1.7-0.5c0.4-0.3,0.6-0.8,0.6-1.5c0-0.7-0.2-1.2-0.7-1.6c-0.5-0.3-1.1-0.5-2-0.5h-2.3V174.2z M311.3,174.9v4.5h3
		c0.8,0,1.4-0.2,1.9-0.6s0.7-1,0.7-1.7c0-0.7-0.2-1.2-0.7-1.6s-1.1-0.6-1.8-0.6h-0.1H311.3z"/>
	<path d="M319.9,180.2v-10.9h3.3c1.3,0,2.4,0.4,3.3,1.3c0.9,0.9,1.3,2,1.3,3.4v1.4c0,1.4-0.4,2.5-1.3,3.4s-2,1.3-3.3,1.3H319.9z
		 M320.8,170.1v9.4h2.4c1.1,0,2-0.4,2.7-1.1c0.7-0.8,1-1.7,1-2.9V174c0-1.1-0.3-2.1-1-2.8c-0.7-0.8-1.6-1.1-2.7-1.1H320.8z"/>
	<path d="M335.9,174.9h-4.9v4.5h5.6v0.8h-6.5v-10.9h6.5v0.8h-5.6v4.1h4.9V174.9z"/>
	<path d="M344.7,177.5c0-0.6-0.2-1-0.7-1.4c-0.4-0.4-1.2-0.7-2.3-1c-1.2-0.3-2-0.7-2.7-1.2c-0.6-0.5-0.9-1.1-0.9-1.9
		c0-0.8,0.3-1.5,1-2.1c0.7-0.5,1.5-0.8,2.6-0.8c1.1,0,2,0.3,2.7,0.9c0.7,0.6,1,1.4,1,2.3l0,0h-0.8c0-0.7-0.3-1.3-0.8-1.8
		c-0.5-0.5-1.2-0.7-2-0.7c-0.8,0-1.5,0.2-2,0.6s-0.7,0.9-0.7,1.5c0,0.6,0.2,1,0.7,1.4s1.2,0.7,2.3,1c1.1,0.3,2,0.7,2.6,1.2
		s0.9,1.1,0.9,1.9c0,0.8-0.4,1.5-1.1,2c-0.7,0.5-1.6,0.8-2.7,0.8c-1.1,0-2-0.3-2.8-0.8c-0.8-0.5-1.2-1.3-1.2-2.4l0,0h0.8
		c0,0.8,0.3,1.5,1,1.9c0.6,0.4,1.4,0.6,2.2,0.6c0.8,0,1.5-0.2,2-0.6C344.5,178.6,344.7,178.1,344.7,177.5z"/>
	<path d="M349,180.2h-0.9v-10.9h0.9V180.2z"/>
	<path d="M359.7,178.7c-0.2,0.4-0.7,0.8-1.3,1.1c-0.6,0.3-1.5,0.5-2.4,0.5c-1.3,0-2.3-0.4-3.1-1.3s-1.2-2-1.2-3.4v-2
		c0-1.3,0.4-2.4,1.2-3.3s1.8-1.3,3-1.3c1.2,0,2.1,0.3,2.8,0.9s1,1.4,1,2.4l0,0h-0.8c0-0.8-0.3-1.4-0.8-1.9c-0.5-0.5-1.3-0.7-2.2-0.7
		c-1,0-1.8,0.4-2.4,1.1c-0.6,0.7-0.9,1.6-0.9,2.7v2c0,1.1,0.3,2.1,0.9,2.8c0.6,0.7,1.4,1.1,2.4,1.1c0.8,0,1.4-0.1,1.9-0.3
		s0.8-0.5,1-0.8v-2.8h-2.9v-0.8h3.8V178.7z"/>
	<path d="M370.6,180.2h-0.9l-6.2-9.3l0,0v9.3h-0.9v-10.9h0.9l6.2,9.3l0,0v-9.3h0.9V180.2z"/>
</g>
</svg>
